<svg width="66" height="47" viewBox="0 0 66 47" fill="none" xmlns="http://www.w3.org/2000/svg">
<path d="M40.9758 14.5806V18.4493H21.5645V42.5995H57.3286V23.5674H61.1973V46.4681H17.6958V14.5806H40.9758Z" fill="#E9E3BD"/>
<path d="M10.7581 18.4492L21.5645 24.6036V36.2361L10.7737 42.5995H0V18.4492H10.7581ZM3.8687 38.7308H9.71807L17.6958 34.0262V26.8523L9.73381 22.3179H3.8687V38.7308Z" fill="#E9E3BD"/>
<path d="M44.9195 34.8169V38.6856H41.0508V34.8169H44.9195Z" fill="#E9E3BD"/>
<path d="M52.6568 34.8169V38.6856H48.7881V34.8169H52.6568Z" fill="#E9E3BD"/>
<path d="M36.9938 34.8169V38.6856H26.5708V34.8169H36.9938Z" fill="#E9E3BD"/>
<path d="M12.1802 20.541V40.6654H8.31152V20.541H12.1802Z" fill="#E9E3BD"/>
<path d="M62.1313 14.1333C62.1313 8.75831 57.774 4.40095 52.399 4.40092C47.0239 4.40092 42.6665 8.7583 42.6665 14.1333C42.6666 19.5084 47.0239 23.8656 52.399 23.8656C57.774 23.8656 62.1312 19.5084 62.1313 14.1333ZM66 14.1333C65.9999 21.645 59.9106 27.7343 52.399 27.7343C44.8873 27.7343 38.7979 21.645 38.7979 14.1333C38.7979 6.62169 44.8873 0.532227 52.399 0.532227C59.9106 0.532253 66 6.62171 66 14.1333Z" fill="#E9E3BD"/>
<path d="M54.3331 7.52295V14.8836H50.4644V7.52295H54.3331Z" fill="#E9E3BD"/>
<path d="M52.3989 21.0191C53.4106 21.0191 54.38 20.1294 54.3332 19.0847C54.2862 18.0367 53.4832 17.1504 52.3989 17.1504C51.3871 17.1504 50.4177 18.0401 50.4645 19.0847C50.5115 20.1327 51.3143 21.0191 52.3989 21.0191Z" fill="#E9E3BD"/>
</svg>
