<svg width="66" height="67" viewBox="0 0 66 67" fill="none" xmlns="http://www.w3.org/2000/svg">
<g clip-path="url(#clip0_775_2248)">
<path d="M39.6467 48.4019L44.2229 43.3282V23.6719L39.6467 18.5984H26.3536L21.7773 23.6719V43.3282L26.3536 48.4019H39.6467ZM25.6445 41.842V25.1583L28.0733 22.4655H37.9269L40.3557 25.1583V41.842L37.9269 44.5347H28.0733L25.6445 41.842Z" fill="#E9E3BD"/>
<mask id="mask0_775_2248" style="mask-type:luminance" maskUnits="userSpaceOnUse" x="0" y="0" width="66" height="67">
<path d="M0 0.500008H66V66.5H0V0.500008Z" fill="white"/>
</mask>
<g mask="url(#mask0_775_2248)">
<path d="M19.5528 12.21C19.5528 16.5414 16.0414 20.0527 11.71 20.0527C7.3785 20.0527 3.8672 16.5414 3.86719 12.21C3.86719 7.87851 7.37849 4.36713 11.71 4.36712C16.0414 4.36712 19.5528 7.8785 19.5528 12.21ZM23.42 12.21C23.42 5.74271 18.1772 0.499928 11.71 0.499928C5.2427 0.499939 0 5.74272 0 12.21C1.29171e-05 18.6772 5.24271 23.9199 11.71 23.9199C18.1772 23.9199 23.42 18.6772 23.42 12.21Z" fill="#E9E3BD"/>
<path d="M62.1329 12.21C62.1329 16.5414 58.6215 20.0527 54.29 20.0527C49.9586 20.0527 46.4473 16.5414 46.4473 12.21C46.4473 7.87851 49.9586 4.36713 54.29 4.36712C58.6215 4.36712 62.1329 7.8785 62.1329 12.21ZM66.0001 12.21C66.0001 5.74271 60.7573 0.499928 54.29 0.499928C47.8228 0.499939 42.5801 5.74272 42.5801 12.21C42.5801 18.6772 47.8228 23.9199 54.29 23.9199C60.7573 23.9199 66.0001 18.6772 66.0001 12.21Z" fill="#E9E3BD"/>
<path d="M19.5528 54.7901C19.5528 59.1215 16.0414 62.6328 11.7099 62.6328C7.37849 62.6328 3.8672 59.1215 3.86719 54.7901C3.86719 50.4586 7.37849 46.9472 11.7099 46.9472C16.0414 46.9472 19.5528 50.4586 19.5528 54.7901ZM23.42 54.7901C23.42 48.3228 18.1772 43.08 11.7099 43.08C5.2427 43.08 0 48.3228 0 54.7901C1.29171e-05 61.2573 5.24271 66.5 11.7099 66.5C18.1772 66.5 23.42 61.2573 23.42 54.7901Z" fill="#E9E3BD"/>
<path d="M62.1329 54.79C62.1329 59.1215 58.6215 62.6328 54.29 62.6328C49.9586 62.6328 46.4473 59.1215 46.4473 54.79C46.4473 50.4586 49.9586 46.9472 54.29 46.9472C58.6215 46.9472 62.1329 50.4586 62.1329 54.79ZM66.0001 54.79C66.0001 48.3228 60.7573 43.08 54.29 43.08C47.8228 43.08 42.5801 48.3228 42.5801 54.79C42.5801 61.2573 47.8228 66.5 54.29 66.5C60.7573 66.5 66.0001 61.2573 66.0001 54.79Z" fill="#E9E3BD"/>
<path d="M30.7651 18.8287L21.7643 13.9864L19.9321 17.392L28.9329 22.2344L30.7651 18.8287Z" fill="#E9E3BD"/>
<path d="M25.025 25.4747L18.156 19.1132L15.5283 21.9505L22.3974 28.312L25.025 25.4747Z" fill="#E9E3BD"/>
<path d="M46.0683 17.392L44.2361 13.9864L35.2354 18.8287L37.0675 22.2344L46.0683 17.392Z" fill="#E9E3BD"/>
<path d="M50.4723 21.9505L47.8447 19.1132L40.9756 25.4747L43.6033 28.312L50.4723 21.9505Z" fill="#E9E3BD"/>
<path d="M30.7651 48.1708L28.9329 44.7652L19.9321 49.6075L21.7643 53.0132L30.7651 48.1708Z" fill="#E9E3BD"/>
<path d="M25.025 41.5252L22.3974 38.6879L15.5283 45.0494L18.156 47.8867L25.025 41.5252Z" fill="#E9E3BD"/>
<path d="M46.0683 49.6075L37.0675 44.7652L35.2354 48.1708L44.2361 53.0132L46.0683 49.6075Z" fill="#E9E3BD"/>
<path d="M50.4723 45.0494L43.6033 38.6879L40.9756 41.5252L47.8447 47.8867L50.4723 45.0494Z" fill="#E9E3BD"/>
<path d="M13.6436 14.1436V10.2764H9.77637V14.1436H13.6436Z" fill="#E9E3BD"/>
<path d="M56.2236 14.1436V10.2764H52.3564V14.1436H56.2236Z" fill="#E9E3BD"/>
<path d="M13.6436 56.7236V52.8564H9.77637V56.7236H13.6436Z" fill="#E9E3BD"/>
<path d="M56.2236 56.7236V52.8564H52.3564V56.7236H56.2236Z" fill="#E9E3BD"/>
<path d="M34.9336 39.1919V27.8077H31.0664V39.1919H34.9336Z" fill="#E9E3BD"/>
</g>
</g>
<defs>
<clipPath id="clip0_775_2248">
<rect width="66" height="66" fill="white" transform="translate(0 0.5)"/>
</clipPath>
</defs>
</svg>
