<svg width="52" height="66" viewBox="0 0 52 66" fill="none" xmlns="http://www.w3.org/2000/svg">
<path d="M47.2695 60.1992C47.2695 61.267 46.4038 62.1328 45.3359 62.1328H6.66406C5.59624 62.1328 4.73047 61.267 4.73047 60.1992V5.80075C4.73049 4.73285 5.59621 3.86716 6.66406 3.86716H45.3359C46.4038 3.86716 47.2695 4.73285 47.2695 5.80075V60.1992ZM51.1367 5.80075C51.1367 2.59698 48.5395 -3.05176e-05 45.3359 -3.05176e-05H6.66406C3.4605 -3.05176e-05 0.8633 2.59698 0.863281 5.80075V60.1992C0.863281 63.4028 3.46045 66 6.66406 66H45.3359C48.5396 66 51.1367 63.4028 51.1367 60.1992V5.80075Z" fill="#E9E3BD"/>
<path d="M31.8008 58.2656V54.3984H20.1992V58.2656H31.8008Z" fill="#E9E3BD"/>
</svg>
