<svg width="36" height="66" viewBox="0 0 36 66" fill="none" xmlns="http://www.w3.org/2000/svg">
<path d="M31.535 38.8008V34.4746C33.7856 33.6777 35.4022 31.5271 35.4022 29.0039C35.4022 27.5193 34.8409 26.1638 33.9204 25.1367C34.8411 24.1096 35.4022 22.7541 35.4022 21.2695C35.4022 19.7849 34.8409 18.4295 33.9204 17.4023C34.8411 16.3752 35.4022 15.0198 35.4022 13.5352C35.4022 12.0505 34.8409 10.6951 33.9204 9.66797C34.8409 8.64084 35.4022 7.28539 35.4022 5.80078C35.4022 2.60223 32.8 0 29.6014 0H6.39829C3.19974 0 0.597512 2.60223 0.597512 5.80078C0.597512 7.28539 1.15877 8.64084 2.07929 9.66797C1.15877 10.6951 0.597512 12.0505 0.597512 13.5352C0.597512 15.0198 1.15877 16.3752 2.07929 17.4023C1.15877 18.4295 0.597512 19.7849 0.597512 21.2695C0.597512 22.7541 1.15877 24.1096 2.07929 25.1367C1.15877 26.1638 0.597512 27.5193 0.597512 29.0039C0.597512 31.5247 2.21412 33.6739 4.4647 34.4721V38.8008H0.0546875L4.88867 58.1367H8.33189V66H27.6678V58.1367H31.111L35.945 38.8008H31.535ZM6.39829 3.86719H29.6014C30.6676 3.86719 31.535 4.7346 31.535 5.80078C31.535 6.86696 30.6676 7.73438 29.6014 7.73438H6.39829C5.33211 7.73438 4.4647 6.86696 4.4647 5.80078C4.4647 4.7346 5.33211 3.86719 6.39829 3.86719ZM6.39829 11.6016H29.6014C30.6676 11.6016 31.535 12.469 31.535 13.5352C31.535 14.6013 30.6676 15.4688 29.6014 15.4688H6.39829C5.33211 15.4688 4.4647 14.6013 4.4647 13.5352C4.4647 12.469 5.33211 11.6016 6.39829 11.6016ZM6.39829 19.3359H29.6014C30.6676 19.3359 31.535 20.2033 31.535 21.2695C31.535 22.3357 30.6676 23.2031 29.6014 23.2031H6.39829C5.33211 23.2031 4.4647 22.3357 4.4647 21.2695C4.4647 20.2033 5.33211 19.3359 6.39829 19.3359ZM23.8006 62.1328H12.1991V58.1367H23.8006V62.1328ZM28.0918 54.2695C26.9813 54.2695 8.80961 54.2695 7.90804 54.2695L5.00765 42.668C16.6331 42.668 19.3191 42.668 30.9922 42.668L28.0918 54.2695ZM8.33189 38.8008V34.8047H12.1991V38.8008H8.33189ZM16.0663 38.8008V34.8047H19.9334V38.8008H16.0663ZM29.6057 30.9375H27.6678V38.8008H23.8006V30.9375C22.9339 30.9375 7.29007 30.9375 6.39829 30.9375C5.33211 30.9375 4.4647 30.0701 4.4647 29.0039C4.4647 27.9377 5.33211 27.0703 6.39829 27.0703H29.6014C30.6676 27.0703 31.535 27.9377 31.535 29.0076C31.535 30.0718 30.6695 30.9375 29.6057 30.9375Z" fill="#E9E3BD"/>
</svg>
