<svg width="66" height="50" viewBox="0 0 66 50" fill="none" xmlns="http://www.w3.org/2000/svg">
<path d="M62.2485 37.0481V0.0327148H3.49694V37.0481H0V44.2749C0 47.4135 2.55337 49.9669 5.69197 49.9669H60.308C63.4466 49.9669 66 47.4135 66 44.2749V37.0481H62.2485ZM7.37783 3.91361H58.3676V37.0481H7.37783V3.91361ZM62.1191 44.2749C62.1191 45.2736 61.3067 46.086 60.308 46.086H5.69197C4.69329 46.086 3.88089 45.2736 3.88089 44.2749V40.929H62.1191V44.2749Z" fill="#E9E3BD"/>
<path d="M32.8728 10.1323C29.3066 10.1323 26.4053 13.0337 26.4053 16.5998C26.4053 20.166 29.3066 23.0673 32.8728 23.0673C36.4389 23.0673 39.3403 20.166 39.3403 16.5998C39.3403 13.0337 36.4389 10.1323 32.8728 10.1323ZM32.8728 19.1863C31.4466 19.1863 30.2862 18.0259 30.2862 16.5997C30.2862 15.1735 31.4466 14.0131 32.8728 14.0131C34.299 14.0131 35.4594 15.1735 35.4594 16.5997C35.4594 18.0259 34.299 19.1863 32.8728 19.1863Z" fill="#E9E3BD"/>
<path d="M26.4478 27.0698H39.2978V30.9507H26.4478V27.0698Z" fill="#E9E3BD"/>
</svg>
