<svg width="66" height="66" viewBox="0 0 66 66" fill="none" xmlns="http://www.w3.org/2000/svg">
<path d="M48.6491 6.0669C48.6491 4.87108 47.6949 3.89809 46.5063 3.86794L46.4495 3.86719H19.5508C18.336 3.86719 17.3511 4.85203 17.3511 6.0669V59.9331L17.3518 59.9899C17.3819 61.1785 18.3549 62.1328 19.5508 62.1328H46.4495C47.6644 62.1328 48.6491 61.1479 48.6491 59.9331V6.0669ZM52.5163 59.9331C52.5163 63.2836 49.8002 66 46.4495 66H19.5508C16.2262 66 13.5264 63.3259 13.4844 60.0115L13.4839 59.9331V6.0669C13.4839 2.71616 16.2002 0 19.5508 0H46.4495L46.5278 0.00050354C49.8425 0.0424575 52.5163 2.74252 52.5163 6.0669V59.9331Z" fill="#E9E3BD"/>
<path d="M43.3208 2.43413L41.0033 11.0867H24.9969L22.6792 2.43413L26.4147 1.43359L27.9645 7.21952H38.0357L39.5853 1.43359L43.3208 2.43413Z" fill="#E9E3BD"/>
<path d="M38.0273 54.3984V58.2656H27.9727V54.3984H38.0273Z" fill="#E9E3BD"/>
</svg>
