<svg width="66" height="66" viewBox="0 0 66 66" fill="none" xmlns="http://www.w3.org/2000/svg">
<mask id="mask0_775_2104" style="mask-type:luminance" maskUnits="userSpaceOnUse" x="0" y="0" width="66" height="66">
<path d="M0 0H66V66H0V0Z" fill="white"/>
</mask>
<g mask="url(#mask0_775_2104)">
<path d="M42.668 66V11.6015H7.86328V66H42.668ZM11.7305 15.4687H38.8008V62.1328H11.7305V15.4687Z" fill="#E9E3BD"/>
</g>
<path d="M40.7344 30.9375V27.0703H9.79688V30.9375H40.7344Z" fill="#E9E3BD"/>
<path d="M27.1992 23.2031V19.3359H23.332V23.2031H27.1992Z" fill="#E9E3BD"/>
<path d="M19.4648 23.2031V19.3359H15.5977V23.2031H19.4648Z" fill="#E9E3BD"/>
<mask id="mask1_775_2104" style="mask-type:luminance" maskUnits="userSpaceOnUse" x="0" y="0" width="66" height="66">
<path d="M0 0H66V66H0V0Z" fill="white"/>
</mask>
<g mask="url(#mask1_775_2104)">
<path d="M34.9336 9.66784V13.535H38.8008V9.66784C38.8008 6.46417 41.3979 3.86706 44.6016 3.86706C47.8052 3.86706 50.4023 6.46417 50.4023 9.66784V48.5977H54.2695V9.66784C54.2695 4.32838 49.941 -0.0001297 44.6016 -0.0001297C39.2621 -0.0001297 34.9336 4.32838 34.9336 9.66784Z" fill="#E9E3BD"/>
<path d="M54.2695 66V60.1992H50.4023V66H54.2695Z" fill="#E9E3BD"/>
<path d="M54.2695 58.2656H50.4023V52.4648C50.4023 51.3969 51.2681 50.5312 52.3359 50.5312C53.4038 50.5312 54.2695 51.3969 54.2695 52.4648V58.2656ZM58.1367 52.4648C58.1367 49.2611 55.5395 46.6641 52.3359 46.6641C49.1324 46.6641 46.5352 49.2611 46.5352 52.4648V62.1328H58.1367V52.4648Z" fill="#E9E3BD"/>
</g>
</svg>
