<svg width="50" height="67" viewBox="0 0 50 67" fill="none" xmlns="http://www.w3.org/2000/svg">
<path d="M36.1206 35.0646L49.2697 30.0074L42.8589 23.5966L49.7522 20.9453L48.3616 17.3296L39.8613 20.5991L36.127 16.8648L43.7153 9.27645L40.9761 6.53721L33.3876 14.1257L29.6533 10.3914L32.9226 1.89099L29.307 0.5L26.6557 7.39335L20.2449 0.982688L15.1875 14.1317L6.48299 22.8363C3.74608 25.573 2.23887 29.2119 2.23887 33.0825C2.23887 34.362 2.40467 35.616 2.72401 36.8206C1.20338 38.2084 0.247559 40.2053 0.247559 42.4214C0.247559 46.3533 3.25577 49.5951 7.09145 49.968V54.1455C3.29464 54.2821 0.247559 57.4116 0.247559 61.2411V66.5001H43.8505V61.2411C43.8505 57.3249 40.6645 54.1389 36.7483 54.1389H27.494V43.6911L36.1206 35.0646ZM39.9768 61.2409V62.6261H4.12172V61.2409C4.12172 59.4609 5.56991 58.0127 7.34997 58.0127H36.7486C38.5287 58.0127 39.9768 59.4609 39.9768 61.2409ZM4.12172 42.4213C4.12172 40.376 5.78568 38.7119 7.8311 38.7119C9.87639 38.7119 11.5405 40.3759 11.5405 42.4213C11.5405 44.4666 9.87652 46.1307 7.8311 46.1307C5.78568 46.1305 4.12172 44.4666 4.12172 42.4213ZM6.1129 33.0823C6.1129 30.2466 7.21722 27.5806 9.22235 25.5754L16.8479 17.9499L32.3023 33.4043L24.6768 41.0298C22.1195 43.5871 18.5716 44.5624 15.257 43.9597C15.3599 43.4627 15.4141 42.9481 15.4141 42.421C15.4141 38.2397 12.0123 34.8377 7.83084 34.8377C7.3018 34.8377 6.78541 34.8926 6.28671 34.9962C6.17359 34.3709 6.1129 33.7315 6.1129 33.0823ZM42.3153 28.5315L35.5212 31.1446L19.1076 14.731L21.7207 7.93698L42.3153 28.5315ZM10.9656 54.1388V49.3235C11.9084 48.8937 12.7494 48.278 13.4386 47.5209C14.6595 47.8442 15.9146 48.0064 17.1699 48.0064C19.3827 48.0064 21.5953 47.5038 23.6203 46.4992V54.1387L10.9656 54.1388Z" fill="#E9E3BD"/>
</svg>
