<svg width="66" height="66" viewBox="0 0 66 66" fill="none" xmlns="http://www.w3.org/2000/svg">
<path d="M38.8008 52.3359V44.6016H34.9336V52.3359H38.8008Z" fill="#E9E3BD"/>
<path d="M46.5352 52.3359V44.6016H42.668V52.3359H46.5352Z" fill="#E9E3BD"/>
<path d="M54.2695 52.3359V44.6016H50.4023V52.3359H54.2695Z" fill="#E9E3BD"/>
<mask id="mask0_775_2218" style="mask-type:luminance" maskUnits="userSpaceOnUse" x="0" y="0" width="66" height="66">
<path d="M0 7.62939e-06H66V66H0V7.62939e-06Z" fill="white"/>
</mask>
<g mask="url(#mask0_775_2218)">
<path d="M66 60.0703V36.8672H0V60.0703H66ZM3.86719 40.7344H62.1328V56.2031H3.86719V40.7344Z" fill="#E9E3BD"/>
<path d="M11.7305 38.8008V5.92969H7.86328V38.8008H11.7305Z" fill="#E9E3BD"/>
<path d="M58.1367 38.8008V5.92969H54.2695V38.8008H58.1367Z" fill="#E9E3BD"/>
<path d="M48.0332 12.1658C44.1854 8.31795 38.8658 5.92939 33.0001 5.92938C27.1343 5.92938 21.8147 8.31793 17.9668 12.1658L20.7014 14.9004C23.8562 11.7455 28.2046 9.79657 33.0001 9.79657C37.7955 9.79658 42.1439 11.7455 45.2987 14.9004L48.0332 12.1658Z" fill="#E9E3BD"/>
<path d="M42.5674 17.6321C40.12 15.1849 36.734 13.6641 33.0001 13.6641C29.2664 13.6641 25.8805 15.1849 23.4331 17.6321L26.1675 20.3667C27.9217 18.6126 30.3365 17.5313 33.0001 17.5313C35.6639 17.5313 38.0788 18.6126 39.833 20.3667L42.5674 17.6321Z" fill="#E9E3BD"/>
<path d="M34.9336 25.2656V21.3984H31.0664V25.2656H34.9336Z" fill="#E9E3BD"/>
</g>
</svg>
