<svg width="65" height="66" viewBox="0 0 65 66" fill="none" xmlns="http://www.w3.org/2000/svg">
<path d="M29.5539 0.0422689C29.6719 0.024575 29.8095 0.00688099 29.8586 0.002949C29.9078 -0.000982999 30.5703 -0.000982999 31.3331 0.002949C32.096 0.00884699 36.1656 0.034405 40.3767 0.0599629L41.6472 0.0682639C45.4632 0.0931925 49.2547 0.117961 50.4525 0.126807C52.5797 0.142535 52.8864 0.148433 53.0083 0.175957C53.083 0.193651 53.1911 0.229039 53.2442 0.254597C53.2992 0.278189 53.3759 0.329305 53.4172 0.366658C53.4604 0.404012 53.5057 0.470856 53.5234 0.521972C53.5469 0.584884 53.5528 0.643864 53.543 0.728402C53.5352 0.809008 53.5057 0.897478 53.4506 1.00364C53.3916 1.1216 53.2127 1.35949 52.7389 1.94929L51.5121 3.47293C51.1858 3.87793 50.6766 4.50901 50.3817 4.87666C50.0848 5.2443 49.5855 5.86359 49.2709 6.25285C48.9583 6.64212 48.0913 7.71752 47.3462 8.64154C46.6011 9.56556 45.8048 10.5545 45.5768 10.8356C45.3507 11.1187 44.873 11.7105 44.5152 12.1528C44.1593 12.5952 43.6501 13.2262 43.3847 13.5565C43.1193 13.8868 42.6239 14.5002 42.2837 14.9229C41.9436 15.3456 41.4482 15.959 41.1828 16.2893C40.9174 16.6196 40.4259 17.229 40.0917 17.6438C39.7555 18.0587 39.2345 18.7055 38.9317 19.081C38.629 19.4565 38.222 19.9618 38.0274 20.2036C37.8327 20.4454 37.3373 21.0588 36.9284 21.568C36.5194 22.0752 36.0063 22.7122 35.7881 22.9815C35.5699 23.2528 35.1708 23.7483 34.9014 24.0825C34.6301 24.4187 34.1524 25.0124 33.8378 25.4017C33.5252 25.7909 32.9571 26.4948 32.5776 26.9646C32.1294 27.521 31.8443 27.8572 31.7637 27.926C31.6949 27.983 31.575 28.0735 31.5003 28.1246C31.4255 28.1757 31.2879 28.2583 31.1955 28.3074C31.1031 28.3566 30.9262 28.4372 30.8023 28.4863C30.6785 28.5355 30.4563 28.6062 30.3108 28.6436C30.1653 28.6829 29.9353 28.7301 29.7997 28.7517C29.664 28.7734 29.4478 28.8009 29.318 28.8127C29.1882 28.8225 28.9307 28.8323 28.7479 28.8323C28.565 28.8323 28.2937 28.8225 28.1482 28.8107C28.0027 28.8009 27.7157 28.7694 27.5093 28.7439C27.3029 28.7163 26.7563 28.6416 26.2904 28.5768C25.8244 28.5099 24.9771 28.3861 24.403 28.3015C23.8289 28.215 22.8164 28.0617 22.1519 27.9594C21.4874 27.8572 20.0542 27.635 18.967 27.466C17.8798 27.2969 16.4348 27.0728 15.7526 26.9646L15.5343 26.93C14.8653 26.824 13.9814 26.6839 13.4622 26.6009C12.8842 26.5085 11.9012 26.3532 11.28 26.2549C10.6587 26.1586 9.76026 26.017 9.28449 25.9403C8.80871 25.8656 7.6763 25.6848 6.76801 25.5373C5.85972 25.3918 4.70175 25.207 4.19255 25.1264C3.68336 25.0458 2.91072 24.922 2.47231 24.8532C2.03389 24.7824 1.47751 24.6939 1.23373 24.6526C0.94276 24.6054 0.738296 24.5622 0.634099 24.5248C0.547595 24.4914 0.437499 24.4423 0.388349 24.4147C0.339199 24.3852 0.252695 24.3184 0.195681 24.2634C0.136701 24.2044 0.0757554 24.1238 0.0541294 24.0687C0.0325035 24.0176 0.0089115 23.939 0.00301351 23.8918C-0.00485048 23.8407 0.00301351 23.7601 0.0226735 23.6814C0.0423335 23.6106 0.0875514 23.4966 0.122939 23.4258C0.160293 23.3551 0.246797 23.2273 0.315607 23.1408C0.384417 23.0543 0.512207 22.9186 0.596745 22.838C0.681283 22.7594 0.995842 22.492 1.29271 22.2482C1.58957 22.0025 2.12039 21.568 2.47231 21.2809C2.82422 20.9939 3.30589 20.6007 3.54377 20.408C3.78166 20.2154 4.5425 19.5961 5.23453 19.0338C5.88781 18.503 6.69702 17.8461 7.09322 17.5244L7.15924 17.4708C7.52689 17.172 8.07147 16.7297 8.3703 16.4859C8.66913 16.2421 9.02891 15.9511 9.16849 15.8391C9.30808 15.725 10.006 15.1588 10.7197 14.5808C11.4333 14.0028 12.2964 13.3029 12.6365 13.0257C12.9766 12.7485 13.5114 12.314 13.8259 12.0604C14.1405 11.8068 14.7008 11.3507 15.0743 11.0479C15.4479 10.7452 16.1065 10.2104 16.539 9.86046C16.9715 9.51051 17.697 8.92268 18.1511 8.55504C18.6053 8.1874 19.1852 7.71752 19.4389 7.51109C19.6925 7.30466 20.2548 6.84855 20.6873 6.4986C21.1198 6.14866 21.7253 5.65716 22.034 5.40747C22.3426 5.15779 23.1507 4.50115 23.8329 3.95067C24.5151 3.39823 25.3762 2.7003 25.7497 2.39753C26.1233 2.09477 26.6619 1.65832 26.949 1.4283C27.236 1.19631 27.5053 0.974152 27.5486 0.932866C27.5919 0.893546 27.7118 0.797212 27.814 0.720538C27.9162 0.643864 28.1207 0.520006 28.2662 0.445298C28.4117 0.37059 28.624 0.276223 28.738 0.236903C28.8521 0.197583 29.0329 0.144501 29.1411 0.118943C29.2492 0.0933849 29.436 0.0579969 29.5539 0.0422689Z" fill="#E9E3BD"/>
<path d="M54.0325 1.06262C54.0483 1.00757 54.0719 0.860124 54.0837 0.732334C54.1014 0.545564 54.1112 0.502312 54.1367 0.502312C54.1544 0.502312 54.2036 0.531802 54.2468 0.56719C54.2901 0.604544 54.353 0.68515 54.3884 0.750028C54.4218 0.81294 54.4651 0.923036 54.4808 0.993812C54.4985 1.06459 54.5122 1.17862 54.5122 1.24939C54.5122 1.32017 54.4985 1.43223 54.4828 1.49907C54.467 1.56788 54.4297 1.67011 54.4022 1.72516C54.3727 1.78218 54.1151 2.15178 53.8281 2.54695C53.541 2.94211 53.2265 3.37463 53.1262 3.51029C53.0279 3.64594 52.5325 4.32618 52.0253 5.02411C51.52 5.72203 50.9538 6.50057 50.767 6.75418C50.5822 7.0078 49.8391 8.03012 49.1156 9.02491C48.3941 10.0197 47.6155 11.0892 47.3855 11.4038C47.1575 11.7183 46.3101 12.8802 45.506 13.9891C44.7 15.0979 43.9765 16.0966 43.8959 16.2106C43.8172 16.3247 43.658 16.5409 43.5459 16.6923C43.4319 16.8437 43.2451 17.0816 43.1311 17.2212C43.0171 17.3607 42.8126 17.5986 42.6769 17.75C42.5413 17.9014 42.3958 18.0665 42.3506 18.1157C42.3073 18.1648 41.6841 18.8785 40.9665 19.7003C40.2489 20.5221 39.4134 21.4775 39.1106 21.8236C38.8098 22.1696 38.4186 22.6159 38.2436 22.8164C38.0667 23.0169 37.7344 23.3963 37.5044 23.6598L36.661 24.6251C36.429 24.8925 35.4244 26.0426 34.4276 27.1829C33.4328 28.3231 32.5599 29.3061 32.4911 29.369C32.4223 29.4339 32.2847 29.5381 32.1884 29.603C32.092 29.6679 31.9053 29.7721 31.7755 29.835C31.6457 29.8979 31.4472 29.9805 31.3331 30.0218C31.2191 30.0611 31.0206 30.1201 30.8908 30.1515C30.761 30.183 30.531 30.2262 30.3796 30.2498C30.2283 30.2714 29.953 30.297 29.7702 30.3049C29.5873 30.3147 29.2728 30.3127 29.0722 30.3049C28.8717 30.297 28.624 30.2793 28.5218 30.2675C28.4195 30.2557 28.105 30.2164 27.8238 30.179C27.5427 30.1397 26.7504 30.0257 26.0643 29.9215C25.3781 29.8193 24.1867 29.6384 23.42 29.5204C22.6533 29.4025 21.5818 29.2354 21.0411 29.1489C20.5005 29.0624 19.606 28.9208 19.0555 28.8323C18.505 28.7458 17.7776 28.6298 17.4434 28.5768C17.1092 28.5237 16.3562 28.4037 15.7723 28.3113C15.2073 28.2219 13.9504 28.0184 12.9345 27.854L12.8331 27.8375C11.801 27.6704 10.4071 27.4463 9.73667 27.3382C9.06626 27.23 8.08523 27.0728 7.55441 26.9863C7.02359 26.8998 5.74962 26.6914 4.72337 26.5243C3.69516 26.3571 2.44478 26.1527 1.94149 26.0721C1.43819 25.9915 0.987978 25.9109 0.938828 25.8932C0.889678 25.8755 0.793344 25.8303 0.722568 25.7949C0.651793 25.7575 0.545629 25.6848 0.486649 25.6356C0.427669 25.5845 0.352961 25.5118 0.321505 25.4724C0.290049 25.4331 0.238933 25.3486 0.209443 25.2837C0.177987 25.2188 0.144565 25.1127 0.132769 25.0478C0.120973 24.9829 0.115075 24.918 0.120973 24.9043C0.128837 24.8885 0.189783 24.9121 0.323471 24.9868C0.429635 25.0458 0.573153 25.1107 0.643929 25.1343C0.714704 25.1579 1.23176 25.2503 1.79404 25.3407C2.35631 25.4331 3.47496 25.614 4.28102 25.7457C5.08708 25.8755 6.37874 26.0839 7.15138 26.2077C7.92402 26.3316 9.51647 26.5872 10.6902 26.7759L10.9987 26.8255C12.1058 27.0036 13.3557 27.2046 13.8947 27.289C14.4845 27.3814 15.6288 27.5643 16.4407 27.6921C17.2507 27.8218 18.0784 27.9535 18.2789 27.985C18.4795 28.0184 19.1282 28.1206 19.7239 28.213L19.815 28.2272C20.4495 28.326 21.7462 28.5278 22.7811 28.6868C23.8683 28.854 25.2562 29.0663 25.8677 29.1567C26.4791 29.2472 27.177 29.3474 27.4208 29.3808C27.6646 29.4143 28.0008 29.4556 28.1679 29.4752C28.3881 29.4988 28.6299 29.5086 29.0329 29.5086C29.4517 29.5086 29.6581 29.4988 29.8488 29.4752C29.9904 29.4556 30.2145 29.4182 30.3501 29.3907C30.4858 29.3631 30.7158 29.3002 30.8613 29.2531C31.0068 29.2039 31.2289 29.1174 31.3528 29.0565C31.4767 28.9975 31.6359 28.911 31.7067 28.8677C31.7775 28.8225 31.9053 28.7321 31.9918 28.6652C32.0783 28.5964 32.1864 28.502 32.2296 28.4549C32.2749 28.4096 32.904 27.6272 33.6275 26.7189C34.3509 25.8106 35.1098 24.8591 35.3123 24.6054C35.5168 24.3518 36.1439 23.5654 36.7082 22.8577C37.2705 22.1499 38.2279 20.9526 38.8334 20.1937C39.4389 19.4349 40.4691 18.1432 41.1238 17.3234C41.7785 16.5036 42.791 15.2335 43.3749 14.5022C43.9588 13.7708 44.989 12.4792 45.6653 11.6318C46.3416 10.7845 47.3541 9.51444 47.9163 8.81062C48.4786 8.10482 49.5088 6.81316 50.2067 5.94026C50.9046 5.06539 52.0272 3.6597 52.7016 2.81432C53.3759 1.96895 53.9441 1.25136 53.9657 1.2199C53.9854 1.18845 54.0149 1.1157 54.0325 1.06262Z" fill="#E9E3BD"/>
<path d="M32.0409 30.2459C32.1864 30.1712 32.381 30.0591 32.4734 29.9942C32.5658 29.9294 32.6523 29.8763 32.6641 29.8763C32.6838 29.8743 32.6897 30.875 32.6897 39.7633L32.6248 39.8105C32.5914 39.836 32.5049 39.8753 32.4341 39.8989C32.3633 39.9206 32.2041 39.9559 32.0802 39.9776C31.9564 39.9992 31.7401 40.0287 31.5986 40.0424C31.4472 40.0562 31.0913 40.066 30.7237 40.066C30.2794 40.066 30.0179 40.0562 29.7997 40.0307C29.6326 40.013 29.4084 39.9795 29.3023 39.9599C29.1981 39.9383 29.0644 39.9029 29.0074 39.8832C28.9523 39.8616 28.8835 39.8262 28.8068 39.7672V30.7944L29.3377 30.7964C29.6994 30.7983 29.9589 30.7905 30.1535 30.7708C30.3108 30.7531 30.5408 30.7217 30.6647 30.7C30.7886 30.6784 30.993 30.6332 31.1169 30.5998C31.2407 30.5663 31.4413 30.5034 31.5592 30.4602C31.6772 30.4169 31.8954 30.3206 32.0409 30.2459Z" fill="#E9E3BD"/>
<path d="M33.0868 39.1735C33.0711 39.1735 33.0632 39.1302 33.0632 39.026C33.0632 38.9218 33.0711 38.8786 33.0868 38.8786C33.1006 38.8786 34.1779 38.9572 35.4814 39.0555C36.7849 39.1519 38.0903 39.2502 38.3812 39.2718C38.6722 39.2934 39.8636 39.3819 41.0255 39.4684C42.1874 39.5549 43.6835 39.665 44.348 39.7141C45.0126 39.7613 46.1096 39.8419 46.7859 39.8911C47.4622 39.9402 48.1837 39.9972 48.3882 40.0169C48.7361 40.0503 48.7637 40.0562 48.7971 40.0995C48.8168 40.125 48.8325 40.1624 48.8305 40.1801C48.8305 40.1997 48.8109 40.239 48.742 40.3177L48.4078 40.2862C48.225 40.2685 47.5349 40.2135 46.8744 40.1663C46.2138 40.1191 44.7983 40.0169 43.7288 39.9402C42.6593 39.8635 41.2339 39.7633 40.5635 39.7141C39.9302 39.6696 39.3461 39.6267 39.2154 39.6172L39.1971 39.6158C39.1165 39.6099 37.8917 39.5215 36.4742 39.4192C35.0567 39.317 33.7218 39.2207 33.5056 39.203C33.2893 39.1872 33.1006 39.1735 33.0868 39.1735Z" fill="#E9E3BD"/>
<path d="M26.5165 39.7358C26.9431 39.6099 27.5407 39.433 27.8435 39.3426C28.1463 39.2502 28.4097 39.1754 28.4294 39.1754C28.4589 39.1735 28.4628 39.1931 28.453 39.5352L27.9025 39.6984C27.5997 39.7888 26.6089 40.0877 25.7006 40.3629C24.7923 40.6362 23.823 40.9291 23.5478 41.0117C23.2726 41.0943 22.5117 41.3243 21.857 41.5228C21.2024 41.7214 20.3668 41.9731 19.9992 42.0832C19.6315 42.1932 18.8845 42.4193 18.3379 42.5845C17.7914 42.7496 16.8536 43.0327 16.2539 43.2136L14.2978 43.8034L12.3416 44.3932C11.742 44.5741 10.989 44.8002 10.6705 44.8985C10.352 44.9948 9.45749 45.2641 8.68486 45.4981C7.91222 45.7301 7.02359 45.9975 6.70903 46.0938C6.39447 46.1901 5.73586 46.3887 5.24436 46.5361C4.75286 46.6836 3.92911 46.9313 3.41598 47.0886C2.90286 47.2439 2.45265 47.3717 2.41726 47.3717C2.38384 47.3717 2.31896 47.354 2.27571 47.3324C2.23245 47.3107 2.18724 47.2714 2.17741 47.2439C2.16758 47.2164 2.15775 47.1692 2.15775 47.1358C2.15775 47.1023 2.17151 47.0512 2.18724 47.0178C2.20296 46.9844 2.24032 46.947 2.26981 46.9313C2.30126 46.9156 2.3858 46.8861 2.46248 46.8645C2.53915 46.8428 3.02082 46.7013 3.53394 46.5499C4.04707 46.3985 4.85313 46.1587 5.323 46.0171C5.79288 45.8775 6.63432 45.6278 7.1907 45.4647C7.74708 45.3015 8.62784 45.04 9.14687 44.8847C9.66589 44.7294 10.4267 44.5033 10.8376 44.3834C11.2485 44.2634 12.2472 43.9666 13.0592 43.7248C13.8692 43.4829 14.75 43.2234 15.0154 43.1448C15.2808 43.0681 15.9964 42.8558 16.6078 42.673C17.2193 42.4901 18.1747 42.207 18.7311 42.0438C19.2875 41.8807 20.1682 41.6192 20.6873 41.4639C21.2063 41.3086 21.9219 41.0962 22.2797 40.992C22.6172 40.8938 23.4581 40.6434 24.2008 40.4223L24.3342 40.3826C25.1068 40.1525 26.0898 39.8616 26.5165 39.7358Z" fill="#E9E3BD"/>
<path d="M33.5488 39.6139C33.2736 39.5038 33.0632 39.4094 33.0632 39.3937C33.0632 39.3819 33.0829 39.3701 33.1065 39.3701C33.132 39.3701 33.9165 39.4271 34.8523 39.4979C35.7881 39.5667 37.0975 39.665 37.762 39.7141C38.4265 39.7633 39.5766 39.8478 40.3177 39.9009L44.0237 40.1761C45.3212 40.2725 46.4399 40.357 46.5106 40.3629C46.5814 40.3688 47.0729 40.4042 47.6018 40.4415C48.1306 40.4809 48.5848 40.5163 48.6084 40.5202C48.6339 40.5261 48.6516 40.5418 48.6477 40.5575C48.6457 40.5733 48.5061 40.6932 48.339 40.8269C48.1719 40.9606 47.9497 41.1257 47.8475 41.1926C47.7453 41.2614 47.59 41.3518 47.5035 41.3931C47.417 41.4344 47.2754 41.4934 47.1889 41.5209C47.1024 41.5504 46.9353 41.5917 46.8154 41.6113C46.6954 41.6329 46.3376 41.686 46.0191 41.7273C45.7006 41.7706 45.0676 41.8512 44.6135 41.9042C44.1593 41.9593 43.4378 42.0438 43.0112 42.093C42.5845 42.1421 41.8453 42.2267 40.5045 42.3781L40.3964 42.3368C40.3374 42.3151 39.5097 41.9868 38.5582 41.6074C37.6066 41.2299 36.201 40.6696 35.4322 40.3629C34.6635 40.0582 33.8182 39.72 33.5488 39.6139Z" fill="#E9E3BD"/>
<path d="M33.0278 39.9324C33.0475 39.893 33.0632 39.8164 33.0632 39.7633C33.0632 39.7082 33.0691 39.665 33.077 39.665C33.0868 39.665 33.2736 39.7436 33.4957 39.8419C33.7179 39.9402 34.2389 40.1663 34.6557 40.3432C35.0725 40.5182 35.7095 40.7876 36.0712 40.9389C36.4329 41.0903 37.0208 41.338 37.3786 41.4894C37.7364 41.6408 38.3596 41.9023 38.7646 42.0733C39.1696 42.2424 39.7889 42.5039 40.1408 42.6533C40.4927 42.8027 41.0766 43.0485 41.4384 43.1998C41.8001 43.3512 42.4194 43.6127 42.8146 43.7798L42.8518 43.7955C43.2496 43.9638 43.8728 44.2273 44.2596 44.3893C44.6587 44.5564 45.2308 44.7982 45.5276 44.924C45.8245 45.0498 46.3121 45.2563 46.6089 45.3801C46.9058 45.504 47.6352 45.8126 48.2309 46.0643C48.8246 46.3159 49.5953 46.6423 49.9413 46.7878C50.2873 46.9333 50.9735 47.2223 51.465 47.4307C51.9565 47.6391 52.7664 47.9811 53.2638 48.1915C53.6938 48.3751 54.2649 48.6159 54.6315 48.7705L54.7875 48.8364C55.1276 48.9799 55.8806 49.2984 56.4586 49.5441C57.0366 49.7899 58.2575 50.3089 59.1717 50.6982C60.0858 51.0874 61.1691 51.5534 61.58 51.7303C61.9909 51.9092 62.5217 52.1491 62.7596 52.2611C62.9975 52.3751 63.3691 52.5619 63.5853 52.6759C63.8016 52.788 64.0041 52.904 64.0336 52.9335C64.065 52.961 64.1024 53.0082 64.1181 53.0377C64.1338 53.0691 64.1456 53.1242 64.1456 53.1615C64.1456 53.1989 64.1338 53.2598 64.1181 53.2933C64.1004 53.3326 64.0611 53.3719 64.0198 53.3916C63.9766 53.4132 63.9038 53.427 63.835 53.427C63.7741 53.427 63.6581 53.4093 63.5794 53.3876C63.5028 53.366 63.3376 53.3051 63.2157 53.252C63.0958 53.1989 62.6338 53.0043 62.1895 52.8214C61.7452 52.6386 61.1613 52.3968 60.8919 52.2867C60.6206 52.1766 60.1134 51.9662 59.7615 51.8207C59.4095 51.6753 58.6762 51.3705 58.1297 51.1464C57.5831 50.9223 56.726 50.5684 56.2227 50.36C55.7194 50.1536 54.8799 49.8056 54.355 49.5893C53.83 49.3711 53.0299 49.0428 52.5757 48.856C52.1216 48.6692 51.463 48.3979 51.1111 48.2505C50.7592 48.105 50.1812 47.8652 49.8233 47.7197C49.4655 47.5742 48.8836 47.3324 48.5258 47.1849C48.168 47.0355 47.5054 46.7622 47.0513 46.5755C46.5971 46.3887 45.7911 46.0584 45.2622 45.8382C44.7334 45.62 43.945 45.2936 43.5125 45.1147C43.08 44.9378 42.2975 44.6134 41.7726 44.3991C41.3005 44.2046 40.5994 43.9147 40.1241 43.7182L39.9737 43.656C39.5078 43.4633 38.7528 43.1507 38.2928 42.962C37.8327 42.7732 37.1741 42.4999 36.8281 42.3584C36.4821 42.2149 35.7173 41.9003 35.1275 41.6565C34.5377 41.4128 33.9597 41.169 33.8398 41.1159C33.7199 41.0608 33.5528 40.9901 33.4663 40.9586C33.3797 40.9271 33.2126 40.876 33.0927 40.8446C32.9728 40.8131 32.7703 40.7679 32.6405 40.7443C32.4636 40.7129 32.3181 40.703 32.0606 40.7011C31.8109 40.6991 31.6634 40.7089 31.5199 40.7345C31.4118 40.7541 31.2348 40.7974 31.1267 40.8347C31.0186 40.8701 30.8633 40.9311 30.7827 40.9724C30.7021 41.0137 30.5723 41.0884 30.4976 41.1395C30.4229 41.1926 30.2892 41.2928 30.2027 41.3656C30.1162 41.4383 29.8193 41.6978 29.5441 41.9416C29.2688 42.1874 28.7203 42.6847 28.3252 43.0465C27.93 43.4082 27.3638 43.9292 27.065 44.2064C26.7661 44.4817 26.3336 44.8847 26.1016 45.099C25.8696 45.3153 25.4293 45.7281 25.1206 46.0151C24.8119 46.3022 24.2064 46.8684 23.7739 47.2714L23.6406 47.3962C23.2566 47.7558 22.9033 48.0866 22.8204 48.1659C22.728 48.2544 22.5117 48.4589 22.3387 48.6201C22.1657 48.7813 21.8826 49.0467 21.7096 49.2099C21.5366 49.3731 20.9389 49.9353 20.3825 50.4603C19.8262 50.9832 18.6721 52.0704 17.8189 52.8765C16.9656 53.6825 16.0947 54.5043 15.8824 54.7029C15.67 54.9015 15.3339 55.2219 15.1333 55.4126C14.9328 55.6033 14.0972 56.3956 13.2755 57.1722C12.4537 57.9487 11.6221 58.7371 11.4294 58.92C11.2348 59.1048 10.8946 59.4291 10.6725 59.6415L10.575 59.7338C10.3752 59.9232 10.1634 60.1239 10.0689 60.2116C9.96079 60.3138 9.16456 61.0688 8.30149 61.8906C7.43842 62.7124 6.64219 63.4673 6.53406 63.5695C6.42517 63.6706 6.1509 63.9333 5.92046 64.154L5.9128 64.1613C5.68081 64.3854 5.38395 64.6666 5.25419 64.7885C5.12444 64.9103 4.97895 65.0381 4.9298 65.0716C4.88065 65.105 4.79218 65.1522 4.7332 65.1777C4.67422 65.2013 4.58968 65.2229 4.54643 65.2229C4.50318 65.2229 4.42847 65.2033 4.37932 65.1777C4.32821 65.1522 4.2653 65.0971 4.22794 65.046C4.19452 64.9968 4.1552 64.9182 4.1434 64.8691C4.12768 64.8042 4.12768 64.755 4.1434 64.6823C4.15717 64.6272 4.19059 64.5447 4.21811 64.4975C4.2476 64.4483 4.54643 64.1436 4.88065 63.8192C5.21487 63.4948 5.68081 63.0407 5.9128 62.8126C6.14479 62.5846 7.15924 61.5976 8.16387 60.6205C9.16849 59.6434 10.47 58.3793 11.0539 57.8131C11.6378 57.2449 12.3239 56.5765 12.5775 56.3268C12.8311 56.0791 13.5074 55.4185 14.0815 54.8602C14.6556 54.3038 15.2965 53.6786 15.5088 53.4741C15.7192 53.2697 16.8654 52.1569 18.0548 51.0009C19.2423 49.8449 20.4238 48.6928 20.6774 48.4432C20.9311 48.1935 21.745 47.4012 22.4862 46.6836C23.2273 45.964 24.0531 45.1599 24.3244 44.8945C24.5957 44.6291 25.2268 44.0138 25.7301 43.5262C26.2333 43.0386 26.9175 42.3879 27.2537 42.0812C27.5879 41.7745 28.0263 41.3734 28.2269 41.1906C28.4274 41.0078 28.7007 40.7561 28.8363 40.6303C28.972 40.5064 29.0998 40.3885 29.1214 40.3688C29.1588 40.3373 29.1725 40.3354 29.3278 40.3629C29.4202 40.3786 29.6267 40.4081 29.7898 40.4258C30.0061 40.4494 30.2577 40.4592 30.7433 40.4592C31.2407 40.4592 31.4786 40.4514 31.7165 40.4239C31.8895 40.4042 32.1195 40.3727 32.2277 40.3511C32.3358 40.3314 32.4813 40.2961 32.5521 40.2725C32.6228 40.2489 32.7133 40.2135 32.7526 40.1938C32.7939 40.1742 32.8647 40.1231 32.9099 40.0798C32.9571 40.0385 33.0101 39.9736 33.0278 39.9324Z" fill="#E9E3BD"/>
<path d="M26.6541 40.3904C27.5683 40.1093 28.337 39.8714 28.3645 39.8616C28.392 39.8517 28.4294 39.8439 28.4471 39.8439C28.4765 39.8419 28.4824 39.8576 28.4824 39.9245C28.4824 39.9736 28.4982 40.0346 28.5218 40.0719C28.5434 40.1073 28.5866 40.1506 28.6201 40.1663C28.6535 40.182 28.679 40.2037 28.679 40.2155C28.679 40.2273 28.0814 40.7817 27.3481 41.4481C26.6167 42.1166 25.9109 42.7595 25.7812 42.8794C25.6494 42.9993 25.0813 43.5144 24.521 44.0275C23.9587 44.5406 23.4633 44.9928 23.3414 45.1088L22.1126 45.3074L21.8078 45.357C21.1474 45.4646 20.2876 45.6045 19.7534 45.6908C19.1322 45.793 17.6813 46.0309 16.5292 46.2196C15.3771 46.4083 14.0992 46.6167 13.6883 46.6836C13.2774 46.7504 11.8698 46.9805 10.5624 47.1947C9.255 47.409 7.84734 47.641 7.43645 47.7059C7.02556 47.7728 5.85775 47.9634 4.84133 48.1306C3.55754 48.3409 2.94611 48.4333 2.83602 48.4333C2.74951 48.4333 2.63352 48.4215 2.58044 48.4058C2.52539 48.3901 2.45265 48.3567 2.41529 48.3311C2.37794 48.3055 2.33075 48.2603 2.31109 48.2269C2.2875 48.1856 2.26588 48.0716 2.24228 47.8573C2.22262 47.6862 2.21279 47.5408 2.22066 47.5368C2.23049 47.5329 2.24818 47.5427 2.25998 47.5604C2.27374 47.5761 2.32879 47.6037 2.38384 47.6194C2.43692 47.6351 2.51949 47.6469 2.56471 47.6469C2.61189 47.6469 2.75344 47.6194 2.87927 47.5879C3.00706 47.5545 3.35897 47.4562 3.66173 47.3697C3.9645 47.2832 4.85313 47.0217 5.63756 46.7897C6.42199 46.5578 7.71759 46.1685 8.51775 45.9267C9.31791 45.6849 10.3972 45.3585 10.9163 45.2012C11.4353 45.0439 12.0939 44.8434 12.3809 44.7569C12.668 44.6684 13.2243 44.4994 13.6195 44.3814C14.0147 44.2615 14.9387 43.9803 15.674 43.7542C16.4093 43.5301 17.2507 43.2726 17.5417 43.1841C17.8326 43.0956 18.7449 42.8165 19.5667 42.5648C20.3884 42.3132 21.4363 41.9907 21.8964 41.8512C22.3564 41.7096 23.2411 41.4383 23.8624 41.2476C24.4836 41.0569 25.7399 40.6716 26.6541 40.3904Z" fill="#E9E3BD"/>
<path d="M31.6674 41.4934C31.7814 41.4717 31.9053 41.4521 31.9426 41.4481C31.98 41.4442 32.1313 41.4403 32.2768 41.4383C32.4223 41.4363 32.6346 41.4481 32.7487 41.4619C32.8627 41.4776 33.0357 41.5091 33.132 41.5307C33.2284 41.5543 33.4053 41.6054 33.5252 41.6447C33.6452 41.6841 33.83 41.7548 33.9381 41.804C34.0462 41.8512 34.581 42.0714 35.1275 42.2935C35.6741 42.5137 36.4821 42.842 36.9264 43.0209C37.3707 43.1998 38.1296 43.5065 38.6172 43.7051C39.1028 43.9037 39.7535 44.1671 40.0622 44.291C40.3708 44.4148 41.1848 44.7431 41.8709 45.0223C42.557 45.2995 43.4692 45.6691 43.8959 45.8421C44.3225 46.0151 45.1069 46.3317 45.6358 46.546C46.1646 46.7603 47.1162 47.1436 47.7492 47.4012C48.3823 47.6568 49.4793 48.1011 50.1871 48.3881C50.8948 48.6751 51.8247 49.0506 52.2514 49.2237C52.6015 49.3657 53.2218 49.6162 53.7558 49.832L54.0896 49.9668C54.6735 50.2027 55.4913 50.535 55.9081 50.7041C56.3249 50.8731 56.8636 51.0914 57.1074 51.1897C57.3396 51.2814 57.9125 51.5141 58.4099 51.7161L58.4836 51.746C58.9967 51.9544 59.903 52.3221 60.4987 52.5619C61.0924 52.8037 62.0479 53.1891 62.622 53.4211L62.8793 53.5251C63.34 53.7113 63.7085 53.8602 63.7485 53.8752C63.8212 53.9047 63.8311 53.9165 63.8311 53.9676C63.8291 54.0089 63.8095 54.0443 63.7662 54.0856C63.7308 54.119 63.6659 54.1544 63.6246 54.1681C63.5814 54.1819 63.489 54.1976 63.4182 54.2055C63.3474 54.2114 63.1941 54.2075 63.0742 54.1957C62.8992 54.176 62.5945 54.1013 61.462 53.7907C60.6933 53.5823 59.5983 53.2815 59.0242 53.1242C58.4501 52.9689 57.5792 52.729 57.0877 52.5934C56.5962 52.4577 55.7056 52.2061 55.1119 52.035C54.5162 51.862 53.5351 51.5789 52.9296 51.4039C52.3241 51.227 51.3234 50.938 50.708 50.7591C50.0927 50.5802 48.9603 50.2538 48.1916 50.0317C47.4229 49.8115 46.4202 49.5205 45.9602 49.3868C45.5001 49.2531 44.7039 49.0231 44.1908 48.8757C43.6776 48.7282 42.7752 48.4667 42.1854 48.2957C41.5956 48.1247 40.4986 47.8062 39.7476 47.5899C38.9966 47.3736 37.935 47.067 37.3884 46.9097C36.8419 46.7504 35.8648 46.4673 35.216 46.2786C34.5672 46.0918 33.9342 45.9011 33.8103 45.8559C33.6864 45.8126 33.4957 45.7556 33.3876 45.7281C33.2795 45.7026 33.0907 45.6672 32.9689 45.6514C32.8489 45.6357 32.6346 45.6219 32.4931 45.6219C32.3515 45.6219 32.151 45.6318 32.0448 45.6436C31.9406 45.6534 31.7519 45.6868 31.628 45.7143C31.5042 45.7419 31.3037 45.7969 31.1857 45.8382C31.0677 45.8795 30.8849 45.9522 30.7827 46.0014C30.6804 46.0486 30.4976 46.1449 30.3796 46.2176C30.2558 46.2904 29.9176 46.5401 29.5932 46.7956C29.2787 47.0434 28.7321 47.4759 28.3743 47.757C28.0165 48.0382 27.47 48.4707 27.1554 48.7184C26.8408 48.9661 26.3985 49.3161 26.1724 49.495L26.1318 49.5271C25.8839 49.7233 25.3543 50.1424 24.9142 50.4878C24.4586 50.8453 23.8658 51.3138 23.5768 51.5421L23.5576 51.5573C23.2765 51.7794 22.7988 52.1569 22.496 52.3948C22.1932 52.6347 21.7155 53.0102 21.4343 53.2323C21.1532 53.4545 20.1014 54.2841 19.0948 55.0784L18.3732 55.6477C17.6238 56.2391 16.9569 56.7653 16.7356 56.9402C16.4446 57.1702 15.9001 57.5988 15.5265 57.8937C15.153 58.1886 14.4747 58.7234 14.0225 59.0812C13.5684 59.439 12.8606 59.9953 12.4497 60.3197L12.2402 60.4851C11.8502 60.793 11.3694 61.1726 11.0834 61.3991C10.7433 61.6684 10.1495 62.1363 9.76616 62.4391C9.38279 62.7419 8.69272 63.2864 8.23268 63.6482C7.77263 64.0099 7.1042 64.5368 6.74835 64.8179C6.3925 65.0991 6.0111 65.3999 5.90297 65.4864C5.79484 65.5729 5.65722 65.6751 5.59824 65.7105C5.53926 65.7459 5.42917 65.799 5.35249 65.8304C5.27582 65.8619 5.1441 65.9071 5.05759 65.9287C4.97109 65.9523 4.8315 65.9799 4.74696 65.9897C4.64473 66.0034 4.55036 66.0034 4.45206 65.9897C4.36753 65.9759 4.27119 65.9464 4.21418 65.915C4.1611 65.8855 4.10015 65.8403 4.08049 65.8127C4.05887 65.7852 4.03527 65.7184 4.02544 65.6653C4.01561 65.6102 4.00775 65.4903 4.00775 65.394C4.00578 65.276 4.01365 65.219 4.02938 65.2092C4.0451 65.2013 4.0628 65.2111 4.07459 65.2328C4.08442 65.2524 4.12178 65.2996 4.15323 65.337C4.18469 65.3743 4.2476 65.4215 4.29085 65.4431C4.33411 65.4648 4.42651 65.4883 4.49728 65.4923C4.56806 65.4982 4.67226 65.4942 4.7273 65.4805C4.78432 65.4687 4.86886 65.4412 4.91407 65.4195C4.96912 65.396 5.41344 65.0008 6.15069 64.3245L6.22568 64.2555C6.88824 63.6465 8.21202 62.4296 9.2373 61.4875C10.3009 60.5104 11.4019 59.498 11.683 59.2384C11.9641 58.9789 12.4026 58.5759 12.6562 58.3419C12.9098 58.108 13.3915 57.6656 13.7276 57.357C14.0619 57.0503 14.5081 56.6394 14.7185 56.4448C14.9308 56.2501 15.2218 55.9808 15.3692 55.8471L16.3424 54.9526C16.7317 54.5948 17.1642 54.1957 17.3038 54.0659C17.4434 53.9361 17.7324 53.6707 17.9447 53.4761C18.1349 53.3034 18.8035 52.6878 19.5054 52.0416L19.7731 51.7952C20.4482 51.1752 21.1049 50.5708 21.3773 50.3201L21.4835 50.2224C21.6309 50.0867 22.6238 49.1765 23.6874 48.1974C24.751 47.2183 25.7418 46.3081 25.8873 46.1744C26.0328 46.0387 26.7484 45.3801 27.4778 44.7097C28.2072 44.0374 28.9779 43.3296 29.1902 43.135C29.4025 42.9403 29.7446 42.6258 29.9491 42.437C30.1535 42.2483 30.3954 42.0419 30.4878 41.9809C30.5802 41.92 30.7433 41.8256 30.8515 41.7725C30.9596 41.7175 31.1405 41.6408 31.2545 41.6034C31.3685 41.5641 31.5533 41.515 31.6674 41.4934Z" fill="#E9E3BD"/>
</svg>
