<svg width="66" height="66" viewBox="0 0 66 66" fill="none" xmlns="http://www.w3.org/2000/svg">
<g clip-path="url(#clip0_775_2153)">
<path d="M21.334 50.5312H17.4668V46.6641H21.334V50.5312Z" fill="#E9E3BD"/>
<path d="M21.334 58.2656H17.4668V54.3984H21.334V58.2656Z" fill="#E9E3BD"/>
<path d="M13.5996 50.5312H9.73242V46.6641H13.5996V50.5312Z" fill="#E9E3BD"/>
<path d="M13.5996 58.2656H9.73242V54.3984H13.5996V58.2656Z" fill="#E9E3BD"/>
<mask id="mask0_775_2153" style="mask-type:luminance" maskUnits="userSpaceOnUse" x="0" y="0" width="66" height="66">
<path d="M0 7.62939e-06H66V66H0V7.62939e-06Z" fill="white"/>
</mask>
<g mask="url(#mask0_775_2153)">
<path d="M21.3984 42.7969C26.7379 42.7969 31.0664 38.4684 31.0664 33.1289H27.1992C27.1992 36.3326 24.6021 38.9297 21.3984 38.9297H9.66797C6.4643 38.9297 3.86719 36.3326 3.86719 33.1289H0C1.24591e-07 38.4684 4.32851 42.7969 9.66797 42.7969H21.3984Z" fill="#E9E3BD"/>
<path d="M31.0664 66V-3.05176e-05H19.4648V15.4687H0V66H31.0664ZM23.332 3.86716H27.1992V15.4687H23.332V3.86716ZM3.86719 19.3359H27.1992V62.1328H3.86719V19.3359Z" fill="#E9E3BD"/>
<path d="M23.332 35.0625V23.2031H7.73438V35.0625H23.332ZM11.6016 27.0703H19.4648V31.1953H11.6016V27.0703Z" fill="#E9E3BD"/>
<path d="M56.2676 50.5312H52.4004V46.6641H56.2676V50.5312Z" fill="#E9E3BD"/>
<path d="M56.2676 58.2656H52.4004V54.3984H56.2676V58.2656Z" fill="#E9E3BD"/>
<path d="M48.5332 50.5312H44.666V46.6641H48.5332V50.5312Z" fill="#E9E3BD"/>
<path d="M48.5332 58.2656H44.666V54.3984H48.5332V58.2656Z" fill="#E9E3BD"/>
<path d="M56.332 42.7969C61.6715 42.7969 66 38.4684 66 33.1289H62.1328C62.1328 36.3326 59.5357 38.9297 56.332 38.9297H44.6016C41.3979 38.9297 38.8008 36.3326 38.8008 33.1289H34.9336C34.9336 38.4684 39.2621 42.7969 44.6016 42.7969H56.332Z" fill="#E9E3BD"/>
<path d="M66 66V-3.05176e-05H54.3984V15.4687H34.9336V66H66ZM58.2656 3.86716H62.1328V15.4687H58.2656V3.86716ZM38.8008 19.3359H62.1328V62.1328H38.8008V19.3359Z" fill="#E9E3BD"/>
<path d="M58.2656 35.0625V23.2031H42.668V35.0625H58.2656ZM46.5352 27.0703H54.3984V31.1953H46.5352V27.0703Z" fill="#E9E3BD"/>
</g>
</g>
<defs>
<clipPath id="clip0_775_2153">
<rect width="66" height="66" fill="white"/>
</clipPath>
</defs>
</svg>
