<svg width="47" height="47" viewBox="0 0 47 47"  xmlns="http://www.w3.org/2000/svg">
<path d="M17.8601 0.68591L18.3888 2.82274C16.3089 3.33427 14.3184 4.15747 12.4847 5.26441L11.3537 3.37742C13.3744 2.15739 15.568 1.24995 17.8601 0.68591ZM29.1399 0.68591L28.6112 2.82274C30.6911 3.33427 32.6816 4.15747 34.5153 5.26441L35.6537 3.37742C33.6307 2.15671 31.4345 1.24926 29.1399 0.68591ZM3.3782 11.3522C2.1581 13.3728 1.25062 15.5663 0.686551 17.8583L2.82378 18.387C3.33533 16.3072 4.15858 14.3168 5.26557 12.4832L3.3782 11.3522ZM2.20323 23.4979C2.20255 22.4299 2.28236 21.3634 2.44197 20.3073L0.264373 19.9767C-0.0881242 22.311 -0.0881242 24.6849 0.264373 27.0191L2.44197 26.6886C2.28236 25.6325 2.20255 24.566 2.20323 23.4979ZM35.6469 43.6185L34.5159 41.7315C32.6844 42.8377 30.6963 43.6607 28.6188 44.1729L29.1478 46.3097C31.4373 45.745 33.6285 44.8377 35.6469 43.6185ZM44.7971 23.4979C44.7977 24.566 44.7179 25.6325 44.5583 26.6886L46.7356 27.0191C47.0881 24.6849 47.0881 22.311 46.7356 19.9767L44.5583 20.3073C44.7179 21.3634 44.7977 22.4299 44.7971 23.4979ZM46.3134 29.1375L44.1765 28.6089C43.665 30.6887 42.8417 32.6791 41.7347 34.5127L43.6218 35.651C44.8426 33.6281 45.7501 31.4321 46.3134 29.1375ZM26.6911 44.5584C24.5758 44.8767 22.4248 44.8767 20.3095 44.5584L19.9789 46.7356C22.3133 47.0881 24.6873 47.0881 27.0217 46.7356L26.6911 44.5584ZM40.644 36.132C39.3739 37.8522 37.8527 39.3721 36.1314 40.6408L37.4386 42.4143C39.3375 41.0182 41.0159 39.3449 42.4176 37.4502L40.644 36.132ZM36.1314 6.35564C37.853 7.62547 39.3741 9.14655 40.644 10.868L42.4176 9.54625C41.0203 7.65269 39.3469 5.97938 37.4533 4.58217L36.1314 6.35564ZM6.35656 10.868C7.62646 9.14655 9.14761 7.62547 10.8692 6.35564L9.54733 4.58217C7.65378 5.9794 5.98049 7.65271 4.58329 9.54625L6.35656 10.868ZM43.6212 11.3528L41.7341 12.4835C42.8404 14.3149 43.6635 16.3029 44.1756 18.3803L46.3129 17.8516C45.7481 15.5621 44.8406 13.3711 43.6212 11.3528ZM20.3089 2.44154C22.4242 2.12331 24.5752 2.12331 26.6905 2.44154L27.0211 0.264337C24.6868 -0.0881125 22.3129 -0.0881125 19.9786 0.264337L20.3089 2.44154ZM7.48676 42.9985L2.93729 44.0599L3.99845 39.5107L1.85391 39.0075L0.793047 43.5567C0.707541 43.9217 0.716593 44.3025 0.819345 44.663C0.922098 45.0235 1.11515 45.3518 1.38024 45.6169C1.64532 45.882 1.97367 46.075 2.33419 46.1778C2.69472 46.2805 3.07551 46.2896 3.44051 46.2041L7.98618 45.1614L7.48676 42.9985ZM2.31295 37.0436L4.45749 37.5427L5.19184 34.3889C4.12141 32.5899 3.3233 30.6423 2.82348 28.6095L0.686259 29.1381C1.16526 31.085 1.89333 32.962 2.85245 34.7227L2.31295 37.0436ZM12.5942 41.8166L9.44025 42.5509L9.93937 44.6954L12.26 44.1553C14.0208 45.1145 15.8979 45.8426 17.8449 46.3217L18.3736 44.1848C16.345 43.6791 14.4024 42.8761 12.6088 41.802L12.5942 41.8166ZM23.4994 4.40751C20.0879 4.4093 16.7392 5.32504 13.8016 7.05948C10.864 8.79392 8.44475 11.2837 6.7955 14.2699C5.14625 17.2561 4.32724 20.6296 4.42364 24.0395C4.52005 27.4495 5.52836 30.7713 7.34369 33.6596L5.50752 41.4913L13.3396 39.6552C15.8445 41.233 18.682 42.2067 21.628 42.4995C24.5739 42.7922 27.5476 42.3959 30.314 41.342C33.0805 40.288 35.5639 38.6052 37.5682 36.4265C39.5725 34.2478 41.0427 31.633 41.8626 28.7885C42.6825 25.944 42.8298 22.9478 42.2926 20.0366C41.7555 17.1255 40.5488 14.3791 38.7678 12.0144C36.9867 9.64974 34.6802 7.73159 32.0304 6.41151C29.3806 5.09142 26.4602 4.40556 23.4997 4.4081L23.4994 4.40751Z" />
</svg>
