<svg width="50" height="41" viewBox="0 0 50 41" fill="none" xmlns="http://www.w3.org/2000/svg">
<path d="M2.15416 18.6371C2.26627 18.581 2.37844 18.5278 2.48775 18.4773C4.38804 17.5973 6.31356 16.7733 8.23627 15.9492C8.33997 15.9492 8.5137 15.8287 8.6118 15.7895C8.76035 15.725 8.90892 15.6634 9.05747 15.5989C9.34335 15.4756 9.62925 15.355 9.91233 15.2317C10.4841 14.9879 11.053 14.744 11.6248 14.5002L15.047 13.0343C17.3285 12.059 19.6128 11.0808 21.8943 10.1054C24.1757 9.13004 26.46 8.15187 28.7415 7.1765C31.0229 6.20113 33.3072 5.22297 35.5887 4.2476C37.8701 3.27223 40.1544 2.29405 42.4359 1.31868C42.9432 1.10006 43.4926 0.774929 44.0363 0.679634C44.4932 0.598353 44.9388 0.441404 45.3984 0.354518C46.2701 0.189153 47.2314 0.121892 48.0667 0.483452C48.3554 0.609578 48.6216 0.786152 48.8431 1.00757C49.9025 2.05582 49.7539 3.77671 49.5297 5.25098C47.9686 15.526 46.4074 25.8038 44.8435 36.0789C44.6305 37.4887 44.339 39.0358 43.2263 39.9271C42.2845 40.681 40.9448 40.7651 39.7816 40.4456C38.6185 40.1233 37.5927 39.4478 36.5865 38.7836C32.4131 36.02 28.237 33.2564 24.0636 30.4929C23.0714 29.837 21.9671 28.9794 21.9784 27.7882C21.984 27.0707 22.4128 26.4317 22.85 25.8627C26.4768 21.1316 31.7096 17.8804 35.6027 13.3679C36.152 12.7316 36.5837 11.5825 35.8297 11.2153C35.3813 10.9967 34.8655 11.2938 34.4563 11.5769C29.3104 15.1504 24.1673 18.7268 19.0214 22.3004C17.3425 23.4663 15.5824 24.6659 13.5588 24.9518C11.7482 25.2097 9.92636 24.7051 8.17462 24.1894C6.70596 23.7578 5.24005 23.315 3.77979 22.8581C3.00342 22.6171 2.20182 22.3564 1.60202 21.8099C1.00222 21.2633 0.657527 20.344 1.01909 19.6153C1.24611 19.1584 1.68616 18.8697 2.14862 18.6343L2.15416 18.6371Z" fill="white"/>
</svg>
