<svg width="42" height="46" viewBox="0 0 42 46" fill="none" xmlns="http://www.w3.org/2000/svg">
<path d="M15.5368 46C12.1883 46 9.03029 44.9318 6.40416 42.9103C5.91361 42.5329 5.44193 42.1205 5.0017 41.6857C1.93623 38.6562 0.393614 34.6213 0.658653 30.3241C0.859004 27.0762 2.16713 23.9452 4.34404 21.5077C7.22713 18.2796 11.2018 16.5016 15.5377 16.5016C16.2825 16.5016 17.0345 16.5573 17.7748 16.6669L18.9248 16.8376V27.043L17.154 26.4581C16.6383 26.2874 16.1019 26.2011 15.5592 26.2011C14.1882 26.2011 12.9044 26.7384 11.9439 27.7132C10.988 28.6835 10.4732 29.9665 10.4929 31.3276C10.519 33.0823 11.4435 34.6725 12.9654 35.5835C13.6662 36.0022 14.464 36.2475 15.2744 36.2924C15.9141 36.3274 16.5457 36.2439 17.1531 36.0435C19.2294 35.358 20.6246 33.4318 20.6246 31.2512L20.6336 20.6677V0H30.3871L30.3987 1.33508C30.4041 1.93973 30.4661 2.54437 30.5829 3.13016C31.0411 5.43375 32.3331 7.48668 34.2207 8.9098C35.8963 10.1739 37.8962 10.8414 40.0021 10.8414C40.0515 10.8414 40.0515 10.8414 40.5017 10.8729L41.755 10.9609V19.2266V20.5742L41.3058 20.5733H40.41C40.4028 20.5733 40.3956 20.5733 40.3876 20.5733H39.9572C39.9554 20.5733 39.9527 20.5733 39.95 20.5733C37.3526 20.5733 34.9188 20.0783 32.5065 19.0604C31.7877 18.7567 31.0878 18.4099 30.4122 18.0227L30.4428 31.3025C30.4266 35.2304 28.8741 38.9149 26.0719 41.6848C23.7979 43.9318 20.9283 45.3675 17.773 45.8347C17.0372 45.9443 16.2852 46 15.5368 46ZM15.5368 19.1969C11.9799 19.1969 8.71854 20.6551 6.35385 23.3028C4.57854 25.291 3.51119 27.8435 3.34768 30.4894C3.13205 33.9978 4.39166 37.2932 6.89561 39.7675C7.25768 40.1251 7.6449 40.4638 8.0474 40.7738C10.1983 42.4296 12.7885 43.3047 15.5368 43.3047C16.1531 43.3047 16.7721 43.2589 17.3786 43.169C19.9634 42.7863 22.3146 41.6102 24.1779 39.7684C26.4672 37.5062 27.7349 34.4991 27.7483 31.3007L27.7061 12.7578L29.883 14.437C31.007 15.304 32.2432 16.0245 33.5558 16.5789C35.35 17.3363 37.1586 17.7567 39.0588 17.8564V13.5035C36.7103 13.3274 34.492 12.4928 32.5972 11.0634C30.1804 9.24133 28.5264 6.6107 27.9388 3.65754C27.8759 3.34039 27.8247 3.01965 27.787 2.69621H23.328V20.6686L23.319 31.2521C23.319 34.597 21.1808 37.5511 17.9976 38.6023C17.0695 38.9086 16.1037 39.0362 15.1262 38.9832C13.881 38.9149 12.6555 38.5385 11.581 37.8961C9.25131 36.5026 7.83627 34.0616 7.79674 31.3671C7.76619 29.2792 8.55592 27.3098 10.0222 25.8211C11.4929 24.3279 13.4587 23.5058 15.5574 23.5058C15.7821 23.5058 16.0049 23.5157 16.2277 23.5346V19.2158C15.9977 19.2032 15.7668 19.1969 15.5368 19.1969Z" fill="white"/>
</svg>
