<svg width="28" height="29" viewBox="0 0 28 29" fill="none" xmlns="http://www.w3.org/2000/svg">
<g clip-path="url(#clip0_780_2891)">
<path d="M10.6746 28.5C8.63644 28.5 6.71418 27.8498 5.11566 26.6193C4.81707 26.3896 4.52996 26.1386 4.26199 25.8739C2.39605 24.0298 1.45707 21.5738 1.6184 18.9581C1.74035 16.9812 2.5366 15.0753 3.86168 13.5916C5.6166 11.6267 8.03597 10.5445 10.6752 10.5445C11.1286 10.5445 11.5863 10.5784 12.0369 10.6451L12.7369 10.749V16.9609L11.659 16.6049C11.3451 16.501 11.0186 16.4485 10.6883 16.4485C9.85379 16.4485 9.0723 16.7755 8.48769 17.3689C7.90582 17.9595 7.59246 18.7405 7.60449 19.569C7.62035 20.637 8.18308 21.605 9.10949 22.1595C9.53605 22.4144 10.0217 22.5637 10.515 22.591C10.9043 22.6123 11.2888 22.5615 11.6585 22.4395C12.9223 22.0223 13.7716 20.8498 13.7716 19.5225L13.7771 13.0803V0.5H19.7139L19.7211 1.31266C19.7243 1.6807 19.7621 2.04875 19.8332 2.40531C20.1121 3.8075 20.8985 5.05711 22.0475 5.92336C23.0674 6.69281 24.2847 7.09914 25.5666 7.09914C25.5967 7.09914 25.5967 7.09914 25.8707 7.11828L26.6336 7.17188V12.2031V13.0234L26.3601 13.0229H25.8149C25.8105 13.0229 25.8061 13.0229 25.8012 13.0229H25.5393C25.5382 13.0229 25.5365 13.0229 25.5349 13.0229C23.9539 13.0229 22.4724 12.7216 21.004 12.102C20.5665 11.9171 20.1405 11.706 19.7293 11.4703L19.7478 19.5537C19.738 21.9446 18.793 24.1873 17.0873 25.8734C15.7032 27.2411 13.9564 28.115 12.0358 28.3994C11.5879 28.4661 11.1302 28.5 10.6746 28.5ZM10.6746 12.1851C8.50957 12.1851 6.52441 13.0727 5.08504 14.6843C4.00441 15.8945 3.35472 17.4482 3.25519 19.0588C3.12394 21.1943 3.89066 23.2002 5.4148 24.7063C5.63519 24.924 5.87089 25.1302 6.1159 25.3188C7.42511 26.3267 9.00175 26.8594 10.6746 26.8594C11.0498 26.8594 11.4266 26.8315 11.7957 26.7768C13.3691 26.5438 14.8003 25.828 15.9345 24.7069C17.3279 23.3298 18.0996 21.4995 18.1078 19.5526L18.0821 8.26562L19.4071 9.28773C20.0913 9.81547 20.8438 10.2541 21.6428 10.5915C22.7349 11.0525 23.8357 11.3084 24.9924 11.3691V8.71953C23.5628 8.61234 22.2126 8.1043 21.0593 7.23422C19.5882 6.12516 18.5814 4.52391 18.2237 2.72633C18.1854 2.53328 18.1543 2.33805 18.1313 2.14117H15.4171V13.0809L15.4117 19.523C15.4117 21.5591 14.1101 23.3572 12.1725 23.997C11.6076 24.1835 11.0197 24.2612 10.4247 24.2289C9.66675 24.1873 8.92082 23.9582 8.26675 23.5672C6.84871 22.719 5.98738 21.2331 5.96332 19.593C5.94472 18.3221 6.42543 17.1234 7.31793 16.2172C8.21316 15.3083 9.40972 14.8079 10.6872 14.8079C10.8239 14.8079 10.9596 14.8139 11.0952 14.8254V12.1966C10.9552 12.1889 10.8146 12.1851 10.6746 12.1851Z" fill="white"/>
</g>
<defs>
<clipPath id="clip0_780_2891">
<rect width="28" height="28" fill="white" transform="translate(0 0.5)"/>
</clipPath>
</defs>
</svg>
