<svg width="55" height="55" viewBox="0 0 55 55" fill="none" xmlns="http://www.w3.org/2000/svg">
<path d="M34.1367 41C33.2287 41 32.2538 40.8954 31.2226 40.683C27.7564 39.9705 23.9727 38.1085 20.5677 35.4398C17.1632 32.7708 14.5099 29.5876 13.0976 26.4761C11.5481 23.0636 11.642 20.0776 13.3614 18.0684C13.4114 18.0108 13.4114 18.0108 16.3507 15.1452L17.5259 14L24.0155 22.2577L21.7245 24.9346C22.8407 26.4152 24.1598 27.9942 25.8239 29.2988C27.4881 30.6033 29.366 31.5297 31.1027 32.2855L33.4106 29.589L43 34.2409L42.083 35.5383C39.833 38.7226 39.833 38.7226 39.7822 38.7813C38.5304 40.2439 36.5758 41 34.1367 41ZM15.5592 19.8609C14.6106 21.0166 14.6764 23.0225 15.7445 25.3756C16.9779 28.0919 19.3403 30.9073 22.3969 33.303C25.4534 35.6987 28.8031 37.3606 31.8288 37.9827C34.4482 38.5214 36.5152 38.1885 37.5149 37.0707C37.6577 36.8692 38.1978 36.1055 38.7754 35.2884L34.1743 33.056L31.946 35.6591L30.9445 35.2408C28.7741 34.3339 26.2685 33.2172 23.9952 31.4356C21.7219 29.6536 20.0844 27.5225 18.7281 25.6652L18.1024 24.8077L20.3471 22.1848L17.2357 18.2257C16.4661 18.976 15.7426 19.6813 15.5592 19.8609Z" fill="white"/>
<path d="M3.03215 52L7.57543 41.6577C4.5791 37.4954 3 32.5969 3 27.4364C3 20.9092 5.54847 14.7726 10.1759 10.1572C14.8033 5.54174 20.9559 3 27.5 3C34.0441 3 40.1967 5.54174 44.8241 10.1572C49.4515 14.7726 52 20.9092 52 27.4364C52 33.9637 49.4515 40.1003 44.8241 44.7157C40.1967 49.3312 34.0441 51.8729 27.5 51.8729C22.8281 51.8729 18.3125 50.5659 14.3939 48.0859L3.03215 52ZM14.8014 44.9161L15.3958 45.3176C18.9749 47.7326 23.1605 49.0097 27.5 49.0097C33.2773 49.0097 38.7089 46.7655 42.7942 42.691C46.8791 38.6161 49.1289 33.1988 49.1289 27.4364C49.1289 21.6744 46.8791 16.2568 42.7938 12.1823C38.7089 8.10778 33.2773 5.86362 27.5 5.86362C21.7227 5.86362 16.2911 8.10778 12.2062 12.1823C8.12086 16.2568 5.87109 21.6741 5.87109 27.4364C5.87109 32.2452 7.42403 36.7959 10.362 40.596L10.8813 41.2678L8.29395 47.1576L14.8014 44.9161Z" fill="white"/>
</svg>
