<svg width="158" height="24" viewBox="0 0 158 24" fill="none" xmlns="http://www.w3.org/2000/svg">
<path d="M1.37801 18.65C6.85801 18.95 10.568 19.1 12.508 19.1C12.968 19.1 13.328 18.97 13.588 18.71C13.868 18.43 14.008 18.06 14.008 17.6V14.9H7.10801C5.00801 14.9 3.47801 14.43 2.51801 13.49C1.57801 12.53 1.10801 11 1.10801 8.9V8C1.10801 5.9 1.57801 4.38 2.51801 3.44C3.47801 2.48 5.00801 2 7.10801 2H17.638V6.2H8.30801C7.10801 6.2 6.50801 6.8 6.50801 8V8.6C6.50801 9.8 7.10801 10.4 8.30801 10.4H13.708C15.668 10.4 17.108 10.86 18.028 11.78C18.948 12.7 19.408 14.14 19.408 16.1V17.6C19.408 19.56 18.948 21 18.028 21.92C17.108 22.84 15.668 23.3 13.708 23.3C12.688 23.3 11.608 23.28 10.468 23.24L7.70801 23.12C5.66801 23.02 3.55801 22.88 1.37801 22.7V18.65ZM30.8115 23H25.4115V6.2H19.1115V2H37.1115V6.2H30.8115V23ZM39.215 2H51.815C53.915 2 55.435 2.48 56.375 3.44C57.335 4.38 57.815 5.9 57.815 8V10.7C57.815 12.36 57.535 13.65 56.975 14.57C56.435 15.49 55.565 16.1 54.365 16.4L58.115 23H52.265L48.815 16.7H44.615V23H39.215V2ZM52.415 8C52.415 6.8 51.815 6.2 50.615 6.2H44.615V12.5H50.615C51.815 12.5 52.415 11.9 52.415 10.7V8ZM74.3068 2H79.7068V17.3C79.7068 19.4 79.2268 20.93 78.2668 21.89C77.3268 22.83 75.8068 23.3 73.7068 23.3H66.8068C64.7068 23.3 63.1768 22.83 62.2168 21.89C61.2768 20.93 60.8068 19.4 60.8068 17.3V2H66.2068V17.3C66.2068 18.5 66.8068 19.1 68.0068 19.1H72.5068C73.7068 19.1 74.3068 18.5 74.3068 17.3V2ZM101.307 11.3L97.1068 18.8H92.9068L88.7068 11.3V23H83.3068V2H89.0068L95.0068 13.1L101.007 2H106.707V23H101.307V11.3ZM115.719 23H110.319V2H115.719V10.25H118.419L123.099 2H128.799L122.919 12.35L128.769 23H123.069L118.419 14.45H115.719V23Z" fill="#FD8A30"/>
<path d="M151.343 7.7C151.343 6.5 150.743 5.9 149.543 5.9H144.443C143.243 5.9 142.643 6.5 142.643 7.7V17.3C142.643 18.5 143.243 19.1 144.443 19.1H149.543C150.743 19.1 151.343 18.5 151.343 17.3V7.7ZM156.743 17.3C156.743 19.4 156.263 20.93 155.303 21.89C154.363 22.83 152.843 23.3 150.743 23.3H143.243C141.143 23.3 139.613 22.83 138.653 21.89C137.713 20.93 137.243 19.4 137.243 17.3V7.7C137.243 5.6 137.713 4.08 138.653 3.14C139.613 2.18 141.143 1.7 143.243 1.7H150.743C152.843 1.7 154.363 2.18 155.303 3.14C156.263 4.08 156.743 5.6 156.743 7.7V17.3Z" fill="white"/>
<path d="M146.238 2.80855C146.614 2.49445 147.415 1.97897 147.323 2.82062C147.216 3.79329 146.25 4.01975 146.031 4.31854C145.566 4.69304 145.064 5.07884 144.853 5.25476C144.425 5.61062 143.566 6.18528 143.021 6.51201C142.476 6.83973 142.179 6.96571 142.175 6.99854C142.17 7.03217 142.457 6.97196 142.285 7.329C142.112 7.68686 141.453 8.223 140.941 8.66722C140.427 9.11131 139.978 9.36195 139.731 9.65281C139.483 9.94439 139.108 10.3519 138.073 10.7999C137.037 11.2479 136.696 11.3342 136.195 11.3535C135.695 11.372 134.813 11.2462 134.419 11.2005C134.024 11.1557 133.82 10.8902 133.389 11.0095C133.169 11.0698 132.878 11.2397 132.645 11.3907C132.651 11.3978 132.658 11.4049 132.664 11.4119C132.664 11.4119 132.663 11.412 132.663 11.4124L132.574 11.359L129.329 8.58222L129.358 8.56014C129.408 8.59308 129.459 8.62677 129.51 8.66137C129.468 8.62275 129.444 8.60088 129.444 8.60088C129.444 8.60088 133.08 7.50928 133.957 7.15147C134.835 6.7928 137.536 5.85 138.6 5.39721C139.665 4.94543 142.212 4.09091 142.666 4.23406C142.666 4.23406 143.226 3.8873 143.431 3.89372C143.637 3.90015 143.783 3.98881 143.783 3.98881C143.785 3.98724 145.46 3.08024 146.238 2.82841C146.238 2.82169 146.238 2.81506 146.238 2.80855Z" fill="#FD8A30"/>
</svg>
