<svg width="30" height="50" viewBox="0 0 30 50" fill="none" xmlns="http://www.w3.org/2000/svg">
<path d="M15 0C13.835 1.32207 13.125 3.05266 13.125 4.95215C13.194 9.12287 13.7056 13.2851 13.75 17.4546C13.8425 21.3404 12.6769 24.9902 11.2598 28.5505C10.7875 29.5344 10.2767 30.4973 9.76562 31.4612L8.26172 31.1584C6.9085 30.8878 6.02828 29.5719 6.29883 28.2184C6.53556 27.0341 7.57774 26.2117 8.74024 26.2063L9.28711 26.2649L8.06641 16.0676C7.66741 11.5267 5.32515 7.54359 1.875 4.95215C1.28211 4.50681 0.653905 4.09968 0 3.74098V39.959H8.35938C8.98441 43.3527 10.8518 46.3092 13.4766 48.3395C14.1009 48.7699 14.6239 49.3376 15 50C15.3761 49.3376 15.8991 48.7699 16.5234 48.3395C19.1482 46.3092 21.0156 43.3527 21.6406 39.959H30V3.74098C29.3461 4.09968 28.7179 4.50681 28.125 4.95215C24.6749 7.54359 22.3326 11.5267 21.9336 16.0676L20.7129 26.2649L21.2598 26.2063C22.4223 26.2117 23.4644 27.0341 23.7012 28.2184C23.9717 29.5719 23.0915 30.8878 21.7383 31.1584L20.2344 31.4612C19.7233 30.4973 19.2125 29.5344 18.7402 28.5505C17.3231 24.9902 16.1575 21.3404 16.25 17.4546C16.2944 13.2851 16.806 9.12287 16.875 4.95215C16.875 3.05266 16.165 1.32207 15 0ZM2.5 8.95684C4.11784 10.8559 5.2036 13.2225 5.52734 15.8234L6.5332 24.2333C5.2524 24.871 4.28143 26.041 3.91601 27.4565H2.5V8.95684ZM27.5 8.95684V27.4565H26.084C25.7186 26.041 24.7476 24.871 23.4668 24.2333L24.4727 15.8234C24.7964 13.2225 25.8822 10.8559 27.5 8.95684ZM15 25.8644C15.6715 28.0613 16.5955 30.1474 17.7441 32.0863C16.6516 32.4183 15.7007 33.064 15 33.9324C14.2993 33.064 13.3484 32.4183 12.2559 32.0863C13.4045 30.1474 14.3285 28.0613 15 25.8644ZM2.5 29.957H3.91601C4.36247 31.6827 5.70946 33.0462 7.42188 33.5222L8.62304 33.7957C8.30141 34.9618 8.125 36.1906 8.125 37.4585H2.5V29.957ZM26.084 29.957H27.5V37.4585H21.875C21.875 36.1906 21.6986 34.9618 21.377 33.7957L22.5781 33.5222C24.2905 33.0462 25.6375 31.6827 26.084 29.957ZM11.0645 34.3719C12.581 34.5863 13.75 35.8828 13.75 37.4585H10.625C10.625 36.3866 10.7837 35.3537 11.0645 34.3719ZM18.9355 34.3719C19.2163 35.3537 19.375 36.3866 19.375 37.4585H16.25C16.25 35.8828 17.419 34.5863 18.9355 34.3719ZM10.9082 39.959H13.75V45.2237C12.3709 43.7816 11.369 41.9708 10.9082 39.959ZM16.25 39.959H19.0918C18.631 41.9708 17.6291 43.7816 16.25 45.2237V39.959Z" fill="#E9E3BD"/>
</svg>
