<svg width="50" height="50" viewBox="0 0 50 50" fill="none" xmlns="http://www.w3.org/2000/svg">
<path d="M42.6777 7.32227C37.9558 2.60049 31.6777 0 25 0C18.3223 0 12.0442 2.60049 7.32227 7.32227C2.60049 12.0442 0 18.3223 0 25C0 31.6777 2.60049 37.9558 7.32227 42.6777C12.0442 47.3995 18.3223 50 25 50C31.6777 50 37.9558 47.3995 42.6777 42.6777C47.3995 37.9558 50 31.6777 50 25C50 18.3223 47.3995 12.0442 42.6777 7.32227ZM40.6061 9.39395C44.7746 13.5625 47.0703 19.1048 47.0703 25C47.0703 30.4042 45.1398 35.5109 41.6072 39.5355L35.1999 33.1282V30.736H41.3331V19.264H35.1999V10.3815H30.6985L19.2952 17.2236L10.4645 8.39287C14.489 4.86016 19.5958 2.92969 25 2.92969C30.8952 2.92969 36.4375 5.22539 40.6061 9.39395ZM11.5234 28.7966V21.2034H16.4858V28.7966H11.5234ZM19.4155 21.4871L32.2701 34.3416V36.6887H31.51L19.4155 29.4319V21.4871ZM21.4305 19.359L31.51 13.3112H32.2701V30.1985L21.4305 19.359ZM35.1998 22.1937H38.4033V27.8064H35.1998V22.1937ZM9.39395 40.6061C5.22539 36.4375 2.92969 30.8952 2.92969 25C2.92969 19.5958 4.86016 14.4891 8.39277 10.4645L16.2021 18.2738H8.59375V31.7264H17.545L30.6985 39.6186H35.1999V37.2715L39.5357 41.6072C35.511 45.1398 30.4042 47.0703 25 47.0703C19.1048 47.0703 13.5625 44.7746 9.39395 40.6061Z" fill="#E9E3BD"/>
</svg>
