<svg width="51" height="50" viewBox="0 0 51 50" fill="none" xmlns="http://www.w3.org/2000/svg">
<path d="M12.2188 39.7461C12.2187 40.5521 11.5599 41.2109 10.7539 41.2109C9.94788 41.2109 9.28906 40.5521 9.28906 39.7461C9.28906 38.9401 9.94788 38.2813 10.7539 38.2812C11.5599 38.2812 12.2188 38.9401 12.2188 39.7461ZM15.1484 39.7461C15.1484 37.322 13.178 35.3516 10.7539 35.3516C8.32986 35.3516 6.35938 37.322 6.35938 39.7461C6.35938 42.1701 8.32986 44.1406 10.7539 44.1406C13.178 44.1406 15.1484 42.1701 15.1484 39.7461Z" fill="#E9E3BD"/>
<path d="M18.0781 39.7461C18.0781 43.7912 14.799 47.0703 10.7539 47.0703C6.70882 47.0703 3.42969 43.7912 3.42969 39.7461C3.42969 37.5981 4.37469 35.6779 5.875 34.3263L6.35938 33.8899V7.32419C6.35939 4.8971 8.32687 2.92966 10.7539 2.92966C13.1809 2.92966 15.1484 4.8971 15.1484 7.32419V33.8899L15.6328 34.3263C17.1331 35.6779 18.0781 37.5981 18.0781 39.7461ZM21.0078 39.7461C21.0078 36.9524 19.8719 34.4504 18.0781 32.6149V7.32419C18.0781 3.27905 14.7989 -2.38419e-05 10.7539 -2.38419e-05C6.70888 -2.37003e-05 3.4297 3.27905 3.42969 7.32419V32.6149C1.63587 34.4504 0.5 36.9524 0.5 39.7461C0.5 45.4092 5.09079 50 10.7539 50C16.417 50 21.0078 45.4092 21.0078 39.7461Z" fill="#E9E3BD"/>
<path d="M9.28906 38.2812H12.2188V29.4922H9.28906V38.2812Z" fill="#E9E3BD"/>
<path d="M35.6478 29.3945H38.5775V2.38419e-05H35.6478V29.3945Z" fill="#E9E3BD"/>
<path d="M42.1139 25.0002L37.1126 19.9989L32.1113 25.0002L34.1829 27.0718L37.1126 24.1422L40.0423 27.0718L42.1139 25.0002Z" fill="#E9E3BD"/>
<path d="M42.1139 4.49237L40.0423 2.42077L37.1126 5.35039L34.1829 2.42077L32.1113 4.49237L37.1126 9.49365L42.1139 4.49237Z" fill="#E9E3BD"/>
<path d="M50.531 8.69043L49.0662 6.15327L23.6943 20.8017L25.1592 23.3389L50.531 8.69043Z" fill="#E9E3BD"/>
<path d="M46.3219 6.04639L43.492 5.28815L43.1129 6.70307L45.9429 7.46131L46.3219 6.04639ZM49.2516 11.1208L45.2496 10.0485L45.9429 7.46131L43.1129 6.70307L41.6616 12.1201L48.4934 13.9507L49.2516 11.1208Z" fill="#E9E3BD"/>
<path d="M32.5638 17.3727L25.7319 15.5421L24.9736 18.3719L28.9756 19.4443L27.9033 23.4463L30.7331 24.2046L32.5638 17.3727Z" fill="#E9E3BD"/>
<path d="M50.531 20.8017L25.1592 6.15327L23.6943 8.69043L49.0662 23.3389L50.531 20.8017Z" fill="#E9E3BD"/>
<path d="M31.1123 6.70307L30.7331 5.28815L27.9033 6.04639L28.2824 7.46131L31.1123 6.70307ZM32.5638 12.1201L31.1123 6.70307L28.2824 7.46131L28.9756 10.0485L24.9736 11.1208L25.7319 13.9507L32.5638 12.1201Z" fill="#E9E3BD"/>
<path d="M49.2516 18.372L48.4934 15.5421L47.0785 15.9212L47.8367 18.7511L49.2516 18.372ZM46.3219 23.4464L45.2496 19.4443L47.8367 18.7511L47.0785 15.9212L41.6616 17.3728L43.492 24.2046L46.3219 23.4464Z" fill="#E9E3BD"/>
</svg>
