<svg width="51" height="50" viewBox="0 0 51 50" fill="none" xmlns="http://www.w3.org/2000/svg">
<mask id="mask0_719_437" style="mask-type:luminance" maskUnits="userSpaceOnUse" x="0" y="0" width="51" height="50">
<path d="M0.75 2.98023e-06H50.75V50H0.75V2.98023e-06Z" fill="white"/>
</mask>
<g mask="url(#mask0_719_437)">
<path d="M47.8203 12.9205C47.8203 19.2246 43.6117 24.7352 37.5664 26.4146C31.5211 24.7352 27.3125 19.2246 27.3125 12.9205V5.85926H28.7773C30.6907 5.85926 32.3185 4.63641 32.9218 2.92957H42.2111C42.8144 4.63641 44.4421 5.85926 46.3555 5.85926H47.8203V12.9205ZM50.75 2.92957H46.3555C45.5465 2.92957 44.8906 2.27374 44.8906 1.46473V-0.000115395H30.2422V1.46473C30.2422 2.27374 29.5863 2.92957 28.7773 2.92957H24.3828V12.9205C24.3828 20.6918 29.6718 27.4659 37.2111 29.3507L37.5664 29.4395L37.9217 29.3507C45.461 27.4659 50.75 20.6918 50.75 12.9205V2.92957Z" fill="#E9E3BD"/>
<path d="M41.9609 12.9209C41.9609 16.0206 40.2242 18.7801 37.5664 20.1547C34.9087 18.7801 33.1719 16.0206 33.1719 12.9209V10.7285C34.2038 10.2372 35.1409 9.57929 35.9479 8.78927H39.1849C39.9919 9.57929 40.929 10.2372 41.9609 10.7285V12.9209ZM44.8906 8.71774L43.916 8.37163C42.7485 7.95701 41.7137 7.25448 40.9004 6.34689L40.4638 5.85958H34.669L34.2324 6.34689C33.4445 7.22611 32.4488 7.91285 31.3259 8.33186L31.2168 8.37163L30.2422 8.71774V12.9209C30.2422 17.4268 32.9463 21.4092 36.9961 23.1208L37.5664 23.3618L38.1367 23.1208L38.2313 23.0803C42.2286 21.347 44.8906 17.3916 44.8906 12.9209V8.71774Z" fill="#E9E3BD"/>
<path d="M36.1018 30.8594C36.1018 39.7585 28.7899 47.0703 19.8908 47.0703C10.9917 47.0703 3.67994 39.7585 3.67993 30.8594C3.67993 21.9708 10.9811 14.7461 19.8908 14.7461C21.806 14.7461 23.7297 15.0794 25.416 15.6826L26.4027 12.9241C24.389 12.2038 22.1306 11.8164 19.8908 11.8164C9.38421 11.8164 0.750244 20.3318 0.750244 30.8594C0.750257 41.3765 9.37364 50 19.8908 50C30.408 50 39.0315 41.3765 39.0315 30.8594C39.0315 29.7548 38.9372 28.671 38.7561 27.6161L35.8687 28.1117C36.0218 29.0036 36.1018 29.9217 36.1018 30.8594Z" fill="#E9E3BD"/>
<path d="M27.3125 30.8594C27.3125 35.53 26.3393 39.7148 24.8461 42.6787C23.306 45.7357 21.462 47.0703 19.8906 47.0703C18.3192 47.0703 16.4753 45.7357 14.9352 42.6787C13.4419 39.7148 12.4688 35.53 12.4688 30.8594C12.4688 26.1889 13.4419 22.0303 14.9332 19.0929C16.469 16.0677 18.3112 14.7461 19.8906 14.7461V11.8164C16.616 11.8164 14.0148 14.4299 12.3208 17.7666C10.5823 21.1912 9.53906 25.8218 9.53906 30.8594C9.53907 35.8969 10.5822 40.5499 12.3188 43.9969C14.0085 47.3507 16.6079 50 19.8906 50C23.1733 50 25.7727 47.3507 27.4624 43.9969C29.199 40.5499 30.2422 35.8969 30.2422 30.8594C30.2422 27.5312 29.7977 24.3915 29.0086 21.6633L26.1943 22.4773C26.9009 24.9202 27.3125 27.7841 27.3125 30.8594Z" fill="#E9E3BD"/>
<path d="M21.3555 48.5352V13.2813H18.4258V48.5352H21.3555Z" fill="#E9E3BD"/>
<path d="M37.5665 32.3242V29.3945H2.21484V32.3242H37.5665Z" fill="#E9E3BD"/>
<path d="M35.2148 41.1133V38.1836H4.56647V41.1133H35.2148Z" fill="#E9E3BD"/>
<path d="M28.8433 23.5352V20.6055H4.56647V23.5352H28.8433Z" fill="#E9E3BD"/>
</g>
</svg>
