<svg width="51" height="50" viewBox="0 0 51 50" fill="none" xmlns="http://www.w3.org/2000/svg">
<path d="M25.25 8.82568C16.3314 8.82568 9.07568 16.0814 9.07568 25C9.07568 33.9186 16.3314 41.1743 25.25 41.1743C34.1686 41.1743 41.4243 33.9186 41.4243 25C41.4243 16.0814 34.1686 8.82568 25.25 8.82568ZM26.7271 31.2762V38.1618C26.242 38.2159 25.7493 38.2446 25.25 38.2446C24.7507 38.2446 24.258 38.2159 23.7729 38.1618V31.2762C20.7868 30.3147 18.9111 28.0034 18.8789 25C18.8789 23.2158 19.6093 21.5676 20.8438 20.3906V25.9345L25.25 27.9825L29.6562 25.9345V20.3906C30.8908 21.5676 31.6211 23.2158 31.6211 25C31.6683 27.9929 29.5172 30.4201 26.7271 31.2762ZM29.6567 37.4899V33.1917C32.6597 31.5824 34.5508 28.4663 34.5508 25C34.4064 19.6357 31.0732 17.0404 26.7266 15.5619V24.0655L25.25 24.7519L23.7734 24.0655V15.5619C18.8562 17.1991 16.0943 20.1249 15.9492 25C15.9492 28.4664 17.8403 31.5824 20.8433 33.1917V37.4899C15.7001 35.6699 12.0054 30.7587 12.0054 25C12.0054 17.6969 17.9469 11.7554 25.25 11.7554C32.5531 11.7554 38.4946 17.6969 38.4946 25C38.4946 30.7587 34.7999 35.6699 29.6567 37.4899Z" fill="#E9E3BD"/>
<path d="M50.25 30.795V19.205L46.4774 18.9858C46.0106 17.3342 45.3521 15.7466 44.511 14.2445L47.0254 11.4201L38.8301 3.22461L36.0055 5.73896C34.5036 4.89795 32.9158 4.23945 31.2642 3.77256L31.0451 0H19.4549L19.2358 3.77256C17.5842 4.23945 15.9965 4.89785 14.4945 5.73896L11.67 3.22461L3.47461 11.42L5.98896 14.2444C5.14795 15.7464 4.48945 17.3341 4.02246 18.9857L0.25 19.205V30.7951L4.02246 31.0143C4.48936 32.6659 5.14785 34.2536 5.98896 35.7556L3.47461 38.58L11.6701 46.7754L14.4946 44.261C15.9966 45.1021 17.5843 45.7605 19.2359 46.2274L19.4549 50H31.0451L31.2642 46.2274C32.9158 45.7605 34.5036 45.1021 36.0055 44.261L38.8301 46.7754L47.0255 38.58L44.5111 35.7556C45.3521 34.2536 46.0106 32.6659 46.4775 31.0143L50.25 30.795ZM44.1413 28.2153C43.6276 30.9754 42.4872 33.726 40.8798 36.0825L42.999 38.4632L38.7131 42.7491L36.3323 40.6299C34.0108 42.2218 31.2605 43.3642 28.4651 43.8914L28.2806 47.0703H22.2194L22.0348 43.8913C19.2745 43.3776 16.5239 42.2371 14.1675 40.6298L11.7869 42.749L7.50098 38.4631L9.62021 36.0824C8.02832 33.7608 6.88594 31.0106 6.35859 28.2152L3.17969 28.0307V21.9694L6.35859 21.7848C6.87236 19.0246 8.01289 16.274 9.62021 13.9176L7.50098 11.5369L11.787 7.25098L14.1676 9.37021C16.1375 8.02676 18.9917 6.69736 22.0349 6.10869L22.2194 2.92969H28.2806L28.4652 6.10869C31.2254 6.62236 33.9761 7.76279 36.3324 9.37021L38.7132 7.25098L42.9991 11.5369L40.8799 13.9176C42.4719 16.2392 43.6142 18.9894 44.1414 21.7848L47.3203 21.9693V28.0306L44.1413 28.2153Z" fill="#E9E3BD"/>
</svg>
